<mxfile host="Electron" agent="Mozilla/5.0 (Windows NT 10.0; Win64; x64) AppleWebKit/537.36 (KHTML, like Gecko) draw.io/26.1.1 Chrome/132.0.6834.210 Electron/34.3.3 Safari/537.36" version="26.1.1" pages="2">
  <diagram id="R2lEEEUBdFMjLlhIrx00" name="DER y Diccionario">
    <mxGraphModel dx="1434" dy="836" grid="1" gridSize="10" guides="1" tooltips="1" connect="1" arrows="1" fold="1" page="1" pageScale="1" pageWidth="1920" pageHeight="1200" math="0" shadow="0" extFonts="Permanent Marker^https://fonts.googleapis.com/css?family=Permanent+Marker">
      <root>
        <mxCell id="0" />
        <mxCell id="1" parent="0" />
        <mxCell id="-DmJnBTHVcqCljg9UefV-1" value="DER" style="rounded=0;whiteSpace=wrap;html=1;" parent="1" vertex="1">
          <mxGeometry x="60" y="90" width="430" height="30" as="geometry" />
        </mxCell>
        <mxCell id="-DmJnBTHVcqCljg9UefV-3" value="Workers" style="rounded=0;whiteSpace=wrap;html=1;" parent="1" vertex="1">
          <mxGeometry x="290" y="150" width="90" height="30" as="geometry" />
        </mxCell>
        <mxCell id="-DmJnBTHVcqCljg9UefV-4" value="Clients" style="rounded=0;whiteSpace=wrap;html=1;" parent="1" vertex="1">
          <mxGeometry x="130" y="150" width="90" height="30" as="geometry" />
        </mxCell>
        <mxCell id="-DmJnBTHVcqCljg9UefV-8" value="Sales" style="rounded=0;whiteSpace=wrap;html=1;" parent="1" vertex="1">
          <mxGeometry x="290" y="240" width="90" height="30" as="geometry" />
        </mxCell>
        <mxCell id="-DmJnBTHVcqCljg9UefV-12" value="DetailSales" style="rounded=0;whiteSpace=wrap;html=1;" parent="1" vertex="1">
          <mxGeometry x="290" y="320" width="90" height="30" as="geometry" />
        </mxCell>
        <mxCell id="-DmJnBTHVcqCljg9UefV-17" value="Services" style="rounded=0;whiteSpace=wrap;html=1;" parent="1" vertex="1">
          <mxGeometry x="130" y="240" width="90" height="30" as="geometry" />
        </mxCell>
        <mxCell id="6yhO1Al4ixMjp-c414iR-1" value="Clients" style="shape=table;startSize=30;container=1;collapsible=1;childLayout=tableLayout;fixedRows=1;rowLines=0;fontStyle=1;align=center;resizeLast=1;html=1;" vertex="1" parent="1">
          <mxGeometry x="30" y="378" width="180" height="210" as="geometry" />
        </mxCell>
        <mxCell id="6yhO1Al4ixMjp-c414iR-2" value="" style="shape=tableRow;horizontal=0;startSize=0;swimlaneHead=0;swimlaneBody=0;fillColor=none;collapsible=0;dropTarget=0;points=[[0,0.5],[1,0.5]];portConstraint=eastwest;top=0;left=0;right=0;bottom=1;" vertex="1" parent="6yhO1Al4ixMjp-c414iR-1">
          <mxGeometry y="30" width="180" height="30" as="geometry" />
        </mxCell>
        <mxCell id="6yhO1Al4ixMjp-c414iR-3" value="PK" style="shape=partialRectangle;connectable=0;fillColor=none;top=0;left=0;bottom=0;right=0;fontStyle=1;overflow=hidden;whiteSpace=wrap;html=1;" vertex="1" parent="6yhO1Al4ixMjp-c414iR-2">
          <mxGeometry width="30" height="30" as="geometry">
            <mxRectangle width="30" height="30" as="alternateBounds" />
          </mxGeometry>
        </mxCell>
        <mxCell id="6yhO1Al4ixMjp-c414iR-4" value="Id_cli" style="shape=partialRectangle;connectable=0;fillColor=none;top=0;left=0;bottom=0;right=0;align=left;spacingLeft=6;fontStyle=5;overflow=hidden;whiteSpace=wrap;html=1;" vertex="1" parent="6yhO1Al4ixMjp-c414iR-2">
          <mxGeometry x="30" width="150" height="30" as="geometry">
            <mxRectangle width="150" height="30" as="alternateBounds" />
          </mxGeometry>
        </mxCell>
        <mxCell id="6yhO1Al4ixMjp-c414iR-5" value="" style="shape=tableRow;horizontal=0;startSize=0;swimlaneHead=0;swimlaneBody=0;fillColor=none;collapsible=0;dropTarget=0;points=[[0,0.5],[1,0.5]];portConstraint=eastwest;top=0;left=0;right=0;bottom=0;" vertex="1" parent="6yhO1Al4ixMjp-c414iR-1">
          <mxGeometry y="60" width="180" height="30" as="geometry" />
        </mxCell>
        <mxCell id="6yhO1Al4ixMjp-c414iR-6" value="" style="shape=partialRectangle;connectable=0;fillColor=none;top=0;left=0;bottom=0;right=0;editable=1;overflow=hidden;whiteSpace=wrap;html=1;" vertex="1" parent="6yhO1Al4ixMjp-c414iR-5">
          <mxGeometry width="30" height="30" as="geometry">
            <mxRectangle width="30" height="30" as="alternateBounds" />
          </mxGeometry>
        </mxCell>
        <mxCell id="6yhO1Al4ixMjp-c414iR-7" value="Name_cli" style="shape=partialRectangle;connectable=0;fillColor=none;top=0;left=0;bottom=0;right=0;align=left;spacingLeft=6;overflow=hidden;whiteSpace=wrap;html=1;" vertex="1" parent="6yhO1Al4ixMjp-c414iR-5">
          <mxGeometry x="30" width="150" height="30" as="geometry">
            <mxRectangle width="150" height="30" as="alternateBounds" />
          </mxGeometry>
        </mxCell>
        <mxCell id="6yhO1Al4ixMjp-c414iR-8" value="" style="shape=tableRow;horizontal=0;startSize=0;swimlaneHead=0;swimlaneBody=0;fillColor=none;collapsible=0;dropTarget=0;points=[[0,0.5],[1,0.5]];portConstraint=eastwest;top=0;left=0;right=0;bottom=0;" vertex="1" parent="6yhO1Al4ixMjp-c414iR-1">
          <mxGeometry y="90" width="180" height="30" as="geometry" />
        </mxCell>
        <mxCell id="6yhO1Al4ixMjp-c414iR-9" value="" style="shape=partialRectangle;connectable=0;fillColor=none;top=0;left=0;bottom=0;right=0;editable=1;overflow=hidden;whiteSpace=wrap;html=1;" vertex="1" parent="6yhO1Al4ixMjp-c414iR-8">
          <mxGeometry width="30" height="30" as="geometry">
            <mxRectangle width="30" height="30" as="alternateBounds" />
          </mxGeometry>
        </mxCell>
        <mxCell id="6yhO1Al4ixMjp-c414iR-10" value="Lastname_cli" style="shape=partialRectangle;connectable=0;fillColor=none;top=0;left=0;bottom=0;right=0;align=left;spacingLeft=6;overflow=hidden;whiteSpace=wrap;html=1;" vertex="1" parent="6yhO1Al4ixMjp-c414iR-8">
          <mxGeometry x="30" width="150" height="30" as="geometry">
            <mxRectangle width="150" height="30" as="alternateBounds" />
          </mxGeometry>
        </mxCell>
        <mxCell id="6yhO1Al4ixMjp-c414iR-11" value="" style="shape=tableRow;horizontal=0;startSize=0;swimlaneHead=0;swimlaneBody=0;fillColor=none;collapsible=0;dropTarget=0;points=[[0,0.5],[1,0.5]];portConstraint=eastwest;top=0;left=0;right=0;bottom=0;" vertex="1" parent="6yhO1Al4ixMjp-c414iR-1">
          <mxGeometry y="120" width="180" height="30" as="geometry" />
        </mxCell>
        <mxCell id="6yhO1Al4ixMjp-c414iR-12" value="" style="shape=partialRectangle;connectable=0;fillColor=none;top=0;left=0;bottom=0;right=0;editable=1;overflow=hidden;whiteSpace=wrap;html=1;" vertex="1" parent="6yhO1Al4ixMjp-c414iR-11">
          <mxGeometry width="30" height="30" as="geometry">
            <mxRectangle width="30" height="30" as="alternateBounds" />
          </mxGeometry>
        </mxCell>
        <mxCell id="6yhO1Al4ixMjp-c414iR-13" value="Dni_cli" style="shape=partialRectangle;connectable=0;fillColor=none;top=0;left=0;bottom=0;right=0;align=left;spacingLeft=6;overflow=hidden;whiteSpace=wrap;html=1;" vertex="1" parent="6yhO1Al4ixMjp-c414iR-11">
          <mxGeometry x="30" width="150" height="30" as="geometry">
            <mxRectangle width="150" height="30" as="alternateBounds" />
          </mxGeometry>
        </mxCell>
        <mxCell id="6yhO1Al4ixMjp-c414iR-14" style="shape=tableRow;horizontal=0;startSize=0;swimlaneHead=0;swimlaneBody=0;fillColor=none;collapsible=0;dropTarget=0;points=[[0,0.5],[1,0.5]];portConstraint=eastwest;top=0;left=0;right=0;bottom=0;" vertex="1" parent="6yhO1Al4ixMjp-c414iR-1">
          <mxGeometry y="150" width="180" height="30" as="geometry" />
        </mxCell>
        <mxCell id="6yhO1Al4ixMjp-c414iR-15" style="shape=partialRectangle;connectable=0;fillColor=none;top=0;left=0;bottom=0;right=0;editable=1;overflow=hidden;whiteSpace=wrap;html=1;" vertex="1" parent="6yhO1Al4ixMjp-c414iR-14">
          <mxGeometry width="30" height="30" as="geometry">
            <mxRectangle width="30" height="30" as="alternateBounds" />
          </mxGeometry>
        </mxCell>
        <mxCell id="6yhO1Al4ixMjp-c414iR-16" value="Phone_cli" style="shape=partialRectangle;connectable=0;fillColor=none;top=0;left=0;bottom=0;right=0;align=left;spacingLeft=6;overflow=hidden;whiteSpace=wrap;html=1;" vertex="1" parent="6yhO1Al4ixMjp-c414iR-14">
          <mxGeometry x="30" width="150" height="30" as="geometry">
            <mxRectangle width="150" height="30" as="alternateBounds" />
          </mxGeometry>
        </mxCell>
        <mxCell id="6yhO1Al4ixMjp-c414iR-17" style="shape=tableRow;horizontal=0;startSize=0;swimlaneHead=0;swimlaneBody=0;fillColor=none;collapsible=0;dropTarget=0;points=[[0,0.5],[1,0.5]];portConstraint=eastwest;top=0;left=0;right=0;bottom=0;" vertex="1" parent="6yhO1Al4ixMjp-c414iR-1">
          <mxGeometry y="180" width="180" height="30" as="geometry" />
        </mxCell>
        <mxCell id="6yhO1Al4ixMjp-c414iR-18" style="shape=partialRectangle;connectable=0;fillColor=none;top=0;left=0;bottom=0;right=0;editable=1;overflow=hidden;whiteSpace=wrap;html=1;" vertex="1" parent="6yhO1Al4ixMjp-c414iR-17">
          <mxGeometry width="30" height="30" as="geometry">
            <mxRectangle width="30" height="30" as="alternateBounds" />
          </mxGeometry>
        </mxCell>
        <mxCell id="6yhO1Al4ixMjp-c414iR-19" value="IsActive_cli" style="shape=partialRectangle;connectable=0;fillColor=none;top=0;left=0;bottom=0;right=0;align=left;spacingLeft=6;overflow=hidden;whiteSpace=wrap;html=1;" vertex="1" parent="6yhO1Al4ixMjp-c414iR-17">
          <mxGeometry x="30" width="150" height="30" as="geometry">
            <mxRectangle width="150" height="30" as="alternateBounds" />
          </mxGeometry>
        </mxCell>
        <mxCell id="6yhO1Al4ixMjp-c414iR-20" value="Workers" style="shape=table;startSize=30;container=1;collapsible=1;childLayout=tableLayout;fixedRows=1;rowLines=0;fontStyle=1;align=center;resizeLast=1;html=1;" vertex="1" parent="1">
          <mxGeometry x="240" y="378" width="180" height="240" as="geometry" />
        </mxCell>
        <mxCell id="6yhO1Al4ixMjp-c414iR-21" value="" style="shape=tableRow;horizontal=0;startSize=0;swimlaneHead=0;swimlaneBody=0;fillColor=none;collapsible=0;dropTarget=0;points=[[0,0.5],[1,0.5]];portConstraint=eastwest;top=0;left=0;right=0;bottom=1;" vertex="1" parent="6yhO1Al4ixMjp-c414iR-20">
          <mxGeometry y="30" width="180" height="30" as="geometry" />
        </mxCell>
        <mxCell id="6yhO1Al4ixMjp-c414iR-22" value="PK" style="shape=partialRectangle;connectable=0;fillColor=none;top=0;left=0;bottom=0;right=0;fontStyle=1;overflow=hidden;whiteSpace=wrap;html=1;" vertex="1" parent="6yhO1Al4ixMjp-c414iR-21">
          <mxGeometry width="30" height="30" as="geometry">
            <mxRectangle width="30" height="30" as="alternateBounds" />
          </mxGeometry>
        </mxCell>
        <mxCell id="6yhO1Al4ixMjp-c414iR-23" value="Id_wor" style="shape=partialRectangle;connectable=0;fillColor=none;top=0;left=0;bottom=0;right=0;align=left;spacingLeft=6;fontStyle=5;overflow=hidden;whiteSpace=wrap;html=1;" vertex="1" parent="6yhO1Al4ixMjp-c414iR-21">
          <mxGeometry x="30" width="150" height="30" as="geometry">
            <mxRectangle width="150" height="30" as="alternateBounds" />
          </mxGeometry>
        </mxCell>
        <mxCell id="6yhO1Al4ixMjp-c414iR-24" value="" style="shape=tableRow;horizontal=0;startSize=0;swimlaneHead=0;swimlaneBody=0;fillColor=none;collapsible=0;dropTarget=0;points=[[0,0.5],[1,0.5]];portConstraint=eastwest;top=0;left=0;right=0;bottom=0;" vertex="1" parent="6yhO1Al4ixMjp-c414iR-20">
          <mxGeometry y="60" width="180" height="30" as="geometry" />
        </mxCell>
        <mxCell id="6yhO1Al4ixMjp-c414iR-25" value="" style="shape=partialRectangle;connectable=0;fillColor=none;top=0;left=0;bottom=0;right=0;editable=1;overflow=hidden;whiteSpace=wrap;html=1;" vertex="1" parent="6yhO1Al4ixMjp-c414iR-24">
          <mxGeometry width="30" height="30" as="geometry">
            <mxRectangle width="30" height="30" as="alternateBounds" />
          </mxGeometry>
        </mxCell>
        <mxCell id="6yhO1Al4ixMjp-c414iR-26" value="Name_wor" style="shape=partialRectangle;connectable=0;fillColor=none;top=0;left=0;bottom=0;right=0;align=left;spacingLeft=6;overflow=hidden;whiteSpace=wrap;html=1;" vertex="1" parent="6yhO1Al4ixMjp-c414iR-24">
          <mxGeometry x="30" width="150" height="30" as="geometry">
            <mxRectangle width="150" height="30" as="alternateBounds" />
          </mxGeometry>
        </mxCell>
        <mxCell id="6yhO1Al4ixMjp-c414iR-27" value="" style="shape=tableRow;horizontal=0;startSize=0;swimlaneHead=0;swimlaneBody=0;fillColor=none;collapsible=0;dropTarget=0;points=[[0,0.5],[1,0.5]];portConstraint=eastwest;top=0;left=0;right=0;bottom=0;" vertex="1" parent="6yhO1Al4ixMjp-c414iR-20">
          <mxGeometry y="90" width="180" height="30" as="geometry" />
        </mxCell>
        <mxCell id="6yhO1Al4ixMjp-c414iR-28" value="" style="shape=partialRectangle;connectable=0;fillColor=none;top=0;left=0;bottom=0;right=0;editable=1;overflow=hidden;whiteSpace=wrap;html=1;" vertex="1" parent="6yhO1Al4ixMjp-c414iR-27">
          <mxGeometry width="30" height="30" as="geometry">
            <mxRectangle width="30" height="30" as="alternateBounds" />
          </mxGeometry>
        </mxCell>
        <mxCell id="6yhO1Al4ixMjp-c414iR-29" value="Lastname_wor" style="shape=partialRectangle;connectable=0;fillColor=none;top=0;left=0;bottom=0;right=0;align=left;spacingLeft=6;overflow=hidden;whiteSpace=wrap;html=1;" vertex="1" parent="6yhO1Al4ixMjp-c414iR-27">
          <mxGeometry x="30" width="150" height="30" as="geometry">
            <mxRectangle width="150" height="30" as="alternateBounds" />
          </mxGeometry>
        </mxCell>
        <mxCell id="6yhO1Al4ixMjp-c414iR-30" value="" style="shape=tableRow;horizontal=0;startSize=0;swimlaneHead=0;swimlaneBody=0;fillColor=none;collapsible=0;dropTarget=0;points=[[0,0.5],[1,0.5]];portConstraint=eastwest;top=0;left=0;right=0;bottom=0;" vertex="1" parent="6yhO1Al4ixMjp-c414iR-20">
          <mxGeometry y="120" width="180" height="30" as="geometry" />
        </mxCell>
        <mxCell id="6yhO1Al4ixMjp-c414iR-31" value="" style="shape=partialRectangle;connectable=0;fillColor=none;top=0;left=0;bottom=0;right=0;editable=1;overflow=hidden;whiteSpace=wrap;html=1;" vertex="1" parent="6yhO1Al4ixMjp-c414iR-30">
          <mxGeometry width="30" height="30" as="geometry">
            <mxRectangle width="30" height="30" as="alternateBounds" />
          </mxGeometry>
        </mxCell>
        <mxCell id="6yhO1Al4ixMjp-c414iR-32" value="Dni_wor" style="shape=partialRectangle;connectable=0;fillColor=none;top=0;left=0;bottom=0;right=0;align=left;spacingLeft=6;overflow=hidden;whiteSpace=wrap;html=1;" vertex="1" parent="6yhO1Al4ixMjp-c414iR-30">
          <mxGeometry x="30" width="150" height="30" as="geometry">
            <mxRectangle width="150" height="30" as="alternateBounds" />
          </mxGeometry>
        </mxCell>
        <mxCell id="6yhO1Al4ixMjp-c414iR-33" style="shape=tableRow;horizontal=0;startSize=0;swimlaneHead=0;swimlaneBody=0;fillColor=none;collapsible=0;dropTarget=0;points=[[0,0.5],[1,0.5]];portConstraint=eastwest;top=0;left=0;right=0;bottom=0;" vertex="1" parent="6yhO1Al4ixMjp-c414iR-20">
          <mxGeometry y="150" width="180" height="30" as="geometry" />
        </mxCell>
        <mxCell id="6yhO1Al4ixMjp-c414iR-34" style="shape=partialRectangle;connectable=0;fillColor=none;top=0;left=0;bottom=0;right=0;editable=1;overflow=hidden;whiteSpace=wrap;html=1;" vertex="1" parent="6yhO1Al4ixMjp-c414iR-33">
          <mxGeometry width="30" height="30" as="geometry">
            <mxRectangle width="30" height="30" as="alternateBounds" />
          </mxGeometry>
        </mxCell>
        <mxCell id="6yhO1Al4ixMjp-c414iR-35" value="Phone_wor" style="shape=partialRectangle;connectable=0;fillColor=none;top=0;left=0;bottom=0;right=0;align=left;spacingLeft=6;overflow=hidden;whiteSpace=wrap;html=1;" vertex="1" parent="6yhO1Al4ixMjp-c414iR-33">
          <mxGeometry x="30" width="150" height="30" as="geometry">
            <mxRectangle width="150" height="30" as="alternateBounds" />
          </mxGeometry>
        </mxCell>
        <mxCell id="6yhO1Al4ixMjp-c414iR-36" style="shape=tableRow;horizontal=0;startSize=0;swimlaneHead=0;swimlaneBody=0;fillColor=none;collapsible=0;dropTarget=0;points=[[0,0.5],[1,0.5]];portConstraint=eastwest;top=0;left=0;right=0;bottom=0;" vertex="1" parent="6yhO1Al4ixMjp-c414iR-20">
          <mxGeometry y="180" width="180" height="30" as="geometry" />
        </mxCell>
        <mxCell id="6yhO1Al4ixMjp-c414iR-37" style="shape=partialRectangle;connectable=0;fillColor=none;top=0;left=0;bottom=0;right=0;editable=1;overflow=hidden;whiteSpace=wrap;html=1;" vertex="1" parent="6yhO1Al4ixMjp-c414iR-36">
          <mxGeometry width="30" height="30" as="geometry">
            <mxRectangle width="30" height="30" as="alternateBounds" />
          </mxGeometry>
        </mxCell>
        <mxCell id="6yhO1Al4ixMjp-c414iR-38" value="Address_wor" style="shape=partialRectangle;connectable=0;fillColor=none;top=0;left=0;bottom=0;right=0;align=left;spacingLeft=6;overflow=hidden;whiteSpace=wrap;html=1;" vertex="1" parent="6yhO1Al4ixMjp-c414iR-36">
          <mxGeometry x="30" width="150" height="30" as="geometry">
            <mxRectangle width="150" height="30" as="alternateBounds" />
          </mxGeometry>
        </mxCell>
        <mxCell id="6yhO1Al4ixMjp-c414iR-96" style="shape=tableRow;horizontal=0;startSize=0;swimlaneHead=0;swimlaneBody=0;fillColor=none;collapsible=0;dropTarget=0;points=[[0,0.5],[1,0.5]];portConstraint=eastwest;top=0;left=0;right=0;bottom=0;" vertex="1" parent="6yhO1Al4ixMjp-c414iR-20">
          <mxGeometry y="210" width="180" height="30" as="geometry" />
        </mxCell>
        <mxCell id="6yhO1Al4ixMjp-c414iR-97" style="shape=partialRectangle;connectable=0;fillColor=none;top=0;left=0;bottom=0;right=0;editable=1;overflow=hidden;whiteSpace=wrap;html=1;" vertex="1" parent="6yhO1Al4ixMjp-c414iR-96">
          <mxGeometry width="30" height="30" as="geometry">
            <mxRectangle width="30" height="30" as="alternateBounds" />
          </mxGeometry>
        </mxCell>
        <mxCell id="6yhO1Al4ixMjp-c414iR-98" value="IsActive_wor" style="shape=partialRectangle;connectable=0;fillColor=none;top=0;left=0;bottom=0;right=0;align=left;spacingLeft=6;overflow=hidden;whiteSpace=wrap;html=1;" vertex="1" parent="6yhO1Al4ixMjp-c414iR-96">
          <mxGeometry x="30" width="150" height="30" as="geometry">
            <mxRectangle width="150" height="30" as="alternateBounds" />
          </mxGeometry>
        </mxCell>
        <mxCell id="6yhO1Al4ixMjp-c414iR-39" value="Services&lt;span style=&quot;color: rgba(0, 0, 0, 0); font-family: monospace; font-size: 0px; font-weight: 400; text-align: start;&quot;&gt;%3CmxGraphModel%3E%3Croot%3E%3CmxCell%20id%3D%220%22%2F%3E%3CmxCell%20id%3D%221%22%20parent%3D%220%22%2F%3E%3CmxCell%20id%3D%222%22%20value%3D%22Clients%22%20style%3D%22shape%3Dtable%3BstartSize%3D30%3Bcontainer%3D1%3Bcollapsible%3D1%3BchildLayout%3DtableLayout%3BfixedRows%3D1%3BrowLines%3D0%3BfontStyle%3D1%3Balign%3Dcenter%3BresizeLast%3D1%3Bhtml%3D1%3B%22%20vertex%3D%221%22%20parent%3D%221%22%3E%3CmxGeometry%20x%3D%2290%22%20y%3D%22490%22%20width%3D%22180%22%20height%3D%22210%22%20as%3D%22geometry%22%2F%3E%3C%2FmxCell%3E%3CmxCell%20id%3D%223%22%20value%3D%22%22%20style%3D%22shape%3DtableRow%3Bhorizontal%3D0%3BstartSize%3D0%3BswimlaneHead%3D0%3BswimlaneBody%3D0%3BfillColor%3Dnone%3Bcollapsible%3D0%3BdropTarget%3D0%3Bpoints%3D%5B%5B0%2C0.5%5D%2C%5B1%2C0.5%5D%5D%3BportConstraint%3Deastwest%3Btop%3D0%3Bleft%3D0%3Bright%3D0%3Bbottom%3D1%3B%22%20vertex%3D%221%22%20parent%3D%222%22%3E%3CmxGeometry%20y%3D%2230%22%20width%3D%22180%22%20height%3D%2230%22%20as%3D%22geometry%22%2F%3E%3C%2FmxCell%3E%3CmxCell%20id%3D%224%22%20value%3D%22PK%22%20style%3D%22shape%3DpartialRectangle%3Bconnectable%3D0%3BfillColor%3Dnone%3Btop%3D0%3Bleft%3D0%3Bbottom%3D0%3Bright%3D0%3BfontStyle%3D1%3Boverflow%3Dhidden%3BwhiteSpace%3Dwrap%3Bhtml%3D1%3B%22%20vertex%3D%221%22%20parent%3D%223%22%3E%3CmxGeometry%20width%3D%2230%22%20height%3D%2230%22%20as%3D%22geometry%22%3E%3CmxRectangle%20width%3D%2230%22%20height%3D%2230%22%20as%3D%22alternateBounds%22%2F%3E%3C%2FmxGeometry%3E%3C%2FmxCell%3E%3CmxCell%20id%3D%225%22%20value%3D%22Id_cli%22%20style%3D%22shape%3DpartialRectangle%3Bconnectable%3D0%3BfillColor%3Dnone%3Btop%3D0%3Bleft%3D0%3Bbottom%3D0%3Bright%3D0%3Balign%3Dleft%3BspacingLeft%3D6%3BfontStyle%3D5%3Boverflow%3Dhidden%3BwhiteSpace%3Dwrap%3Bhtml%3D1%3B%22%20vertex%3D%221%22%20parent%3D%223%22%3E%3CmxGeometry%20x%3D%2230%22%20width%3D%22150%22%20height%3D%2230%22%20as%3D%22geometry%22%3E%3CmxRectangle%20width%3D%22150%22%20height%3D%2230%22%20as%3D%22alternateBounds%22%2F%3E%3C%2FmxGeometry%3E%3C%2FmxCell%3E%3CmxCell%20id%3D%226%22%20value%3D%22%22%20style%3D%22shape%3DtableRow%3Bhorizontal%3D0%3BstartSize%3D0%3BswimlaneHead%3D0%3BswimlaneBody%3D0%3BfillColor%3Dnone%3Bcollapsible%3D0%3BdropTarget%3D0%3Bpoints%3D%5B%5B0%2C0.5%5D%2C%5B1%2C0.5%5D%5D%3BportConstraint%3Deastwest%3Btop%3D0%3Bleft%3D0%3Bright%3D0%3Bbottom%3D0%3B%22%20vertex%3D%221%22%20parent%3D%222%22%3E%3CmxGeometry%20y%3D%2260%22%20width%3D%22180%22%20height%3D%2230%22%20as%3D%22geometry%22%2F%3E%3C%2FmxCell%3E%3CmxCell%20id%3D%227%22%20value%3D%22%22%20style%3D%22shape%3DpartialRectangle%3Bconnectable%3D0%3BfillColor%3Dnone%3Btop%3D0%3Bleft%3D0%3Bbottom%3D0%3Bright%3D0%3Beditable%3D1%3Boverflow%3Dhidden%3BwhiteSpace%3Dwrap%3Bhtml%3D1%3B%22%20vertex%3D%221%22%20parent%3D%226%22%3E%3CmxGeometry%20width%3D%2230%22%20height%3D%2230%22%20as%3D%22geometry%22%3E%3CmxRectangle%20width%3D%2230%22%20height%3D%2230%22%20as%3D%22alternateBounds%22%2F%3E%3C%2FmxGeometry%3E%3C%2FmxCell%3E%3CmxCell%20id%3D%228%22%20value%3D%22Name_cli%22%20style%3D%22shape%3DpartialRectangle%3Bconnectable%3D0%3BfillColor%3Dnone%3Btop%3D0%3Bleft%3D0%3Bbottom%3D0%3Bright%3D0%3Balign%3Dleft%3BspacingLeft%3D6%3Boverflow%3Dhidden%3BwhiteSpace%3Dwrap%3Bhtml%3D1%3B%22%20vertex%3D%221%22%20parent%3D%226%22%3E%3CmxGeometry%20x%3D%2230%22%20width%3D%22150%22%20height%3D%2230%22%20as%3D%22geometry%22%3E%3CmxRectangle%20width%3D%22150%22%20height%3D%2230%22%20as%3D%22alternateBounds%22%2F%3E%3C%2FmxGeometry%3E%3C%2FmxCell%3E%3CmxCell%20id%3D%229%22%20value%3D%22%22%20style%3D%22shape%3DtableRow%3Bhorizontal%3D0%3BstartSize%3D0%3BswimlaneHead%3D0%3BswimlaneBody%3D0%3BfillColor%3Dnone%3Bcollapsible%3D0%3BdropTarget%3D0%3Bpoints%3D%5B%5B0%2C0.5%5D%2C%5B1%2C0.5%5D%5D%3BportConstraint%3Deastwest%3Btop%3D0%3Bleft%3D0%3Bright%3D0%3Bbottom%3D0%3B%22%20vertex%3D%221%22%20parent%3D%222%22%3E%3CmxGeometry%20y%3D%2290%22%20width%3D%22180%22%20height%3D%2230%22%20as%3D%22geometry%22%2F%3E%3C%2FmxCell%3E%3CmxCell%20id%3D%2210%22%20value%3D%22%22%20style%3D%22shape%3DpartialRectangle%3Bconnectable%3D0%3BfillColor%3Dnone%3Btop%3D0%3Bleft%3D0%3Bbottom%3D0%3Bright%3D0%3Beditable%3D1%3Boverflow%3Dhidden%3BwhiteSpace%3Dwrap%3Bhtml%3D1%3B%22%20vertex%3D%221%22%20parent%3D%229%22%3E%3CmxGeometry%20width%3D%2230%22%20height%3D%2230%22%20as%3D%22geometry%22%3E%3CmxRectangle%20width%3D%2230%22%20height%3D%2230%22%20as%3D%22alternateBounds%22%2F%3E%3C%2FmxGeometry%3E%3C%2FmxCell%3E%3CmxCell%20id%3D%2211%22%20value%3D%22Lastname_cli%22%20style%3D%22shape%3DpartialRectangle%3Bconnectable%3D0%3BfillColor%3Dnone%3Btop%3D0%3Bleft%3D0%3Bbottom%3D0%3Bright%3D0%3Balign%3Dleft%3BspacingLeft%3D6%3Boverflow%3Dhidden%3BwhiteSpace%3Dwrap%3Bhtml%3D1%3B%22%20vertex%3D%221%22%20parent%3D%229%22%3E%3CmxGeometry%20x%3D%2230%22%20width%3D%22150%22%20height%3D%2230%22%20as%3D%22geometry%22%3E%3CmxRectangle%20width%3D%22150%22%20height%3D%2230%22%20as%3D%22alternateBounds%22%2F%3E%3C%2FmxGeometry%3E%3C%2FmxCell%3E%3CmxCell%20id%3D%2212%22%20value%3D%22%22%20style%3D%22shape%3DtableRow%3Bhorizontal%3D0%3BstartSize%3D0%3BswimlaneHead%3D0%3BswimlaneBody%3D0%3BfillColor%3Dnone%3Bcollapsible%3D0%3BdropTarget%3D0%3Bpoints%3D%5B%5B0%2C0.5%5D%2C%5B1%2C0.5%5D%5D%3BportConstraint%3Deastwest%3Btop%3D0%3Bleft%3D0%3Bright%3D0%3Bbottom%3D0%3B%22%20vertex%3D%221%22%20parent%3D%222%22%3E%3CmxGeometry%20y%3D%22120%22%20width%3D%22180%22%20height%3D%2230%22%20as%3D%22geometry%22%2F%3E%3C%2FmxCell%3E%3CmxCell%20id%3D%2213%22%20value%3D%22%22%20style%3D%22shape%3DpartialRectangle%3Bconnectable%3D0%3BfillColor%3Dnone%3Btop%3D0%3Bleft%3D0%3Bbottom%3D0%3Bright%3D0%3Beditable%3D1%3Boverflow%3Dhidden%3BwhiteSpace%3Dwrap%3Bhtml%3D1%3B%22%20vertex%3D%221%22%20parent%3D%2212%22%3E%3CmxGeometry%20width%3D%2230%22%20height%3D%2230%22%20as%3D%22geometry%22%3E%3CmxRectangle%20width%3D%2230%22%20height%3D%2230%22%20as%3D%22alternateBounds%22%2F%3E%3C%2FmxGeometry%3E%3C%2FmxCell%3E%3CmxCell%20id%3D%2214%22%20value%3D%22Dni_cli%22%20style%3D%22shape%3DpartialRectangle%3Bconnectable%3D0%3BfillColor%3Dnone%3Btop%3D0%3Bleft%3D0%3Bbottom%3D0%3Bright%3D0%3Balign%3Dleft%3BspacingLeft%3D6%3Boverflow%3Dhidden%3BwhiteSpace%3Dwrap%3Bhtml%3D1%3B%22%20vertex%3D%221%22%20parent%3D%2212%22%3E%3CmxGeometry%20x%3D%2230%22%20width%3D%22150%22%20height%3D%2230%22%20as%3D%22geometry%22%3E%3CmxRectangle%20width%3D%22150%22%20height%3D%2230%22%20as%3D%22alternateBounds%22%2F%3E%3C%2FmxGeometry%3E%3C%2FmxCell%3E%3CmxCell%20id%3D%2215%22%20style%3D%22shape%3DtableRow%3Bhorizontal%3D0%3BstartSize%3D0%3BswimlaneHead%3D0%3BswimlaneBody%3D0%3BfillColor%3Dnone%3Bcollapsible%3D0%3BdropTarget%3D0%3Bpoints%3D%5B%5B0%2C0.5%5D%2C%5B1%2C0.5%5D%5D%3BportConstraint%3Deastwest%3Btop%3D0%3Bleft%3D0%3Bright%3D0%3Bbottom%3D0%3B%22%20vertex%3D%221%22%20parent%3D%222%22%3E%3CmxGeometry%20y%3D%22150%22%20width%3D%22180%22%20height%3D%2230%22%20as%3D%22geometry%22%2F%3E%3C%2FmxCell%3E%3CmxCell%20id%3D%2216%22%20style%3D%22shape%3DpartialRectangle%3Bconnectable%3D0%3BfillColor%3Dnone%3Btop%3D0%3Bleft%3D0%3Bbottom%3D0%3Bright%3D0%3Beditable%3D1%3Boverflow%3Dhidden%3BwhiteSpace%3Dwrap%3Bhtml%3D1%3B%22%20vertex%3D%221%22%20parent%3D%2215%22%3E%3CmxGeometry%20width%3D%2230%22%20height%3D%2230%22%20as%3D%22geometry%22%3E%3CmxRectangle%20width%3D%2230%22%20height%3D%2230%22%20as%3D%22alternateBounds%22%2F%3E%3C%2FmxGeometry%3E%3C%2FmxCell%3E%3CmxCell%20id%3D%2217%22%20value%3D%22Phone_cli%22%20style%3D%22shape%3DpartialRectangle%3Bconnectable%3D0%3BfillColor%3Dnone%3Btop%3D0%3Bleft%3D0%3Bbottom%3D0%3Bright%3D0%3Balign%3Dleft%3BspacingLeft%3D6%3Boverflow%3Dhidden%3BwhiteSpace%3Dwrap%3Bhtml%3D1%3B%22%20vertex%3D%221%22%20parent%3D%2215%22%3E%3CmxGeometry%20x%3D%2230%22%20width%3D%22150%22%20height%3D%2230%22%20as%3D%22geometry%22%3E%3CmxRectangle%20width%3D%22150%22%20height%3D%2230%22%20as%3D%22alternateBounds%22%2F%3E%3C%2FmxGeometry%3E%3C%2FmxCell%3E%3CmxCell%20id%3D%2218%22%20style%3D%22shape%3DtableRow%3Bhorizontal%3D0%3BstartSize%3D0%3BswimlaneHead%3D0%3BswimlaneBody%3D0%3BfillColor%3Dnone%3Bcollapsible%3D0%3BdropTarget%3D0%3Bpoints%3D%5B%5B0%2C0.5%5D%2C%5B1%2C0.5%5D%5D%3BportConstraint%3Deastwest%3Btop%3D0%3Bleft%3D0%3Bright%3D0%3Bbottom%3D0%3B%22%20vertex%3D%221%22%20parent%3D%222%22%3E%3CmxGeometry%20y%3D%22180%22%20width%3D%22180%22%20height%3D%2230%22%20as%3D%22geometry%22%2F%3E%3C%2FmxCell%3E%3CmxCell%20id%3D%2219%22%20style%3D%22shape%3DpartialRectangle%3Bconnectable%3D0%3BfillColor%3Dnone%3Btop%3D0%3Bleft%3D0%3Bbottom%3D0%3Bright%3D0%3Beditable%3D1%3Boverflow%3Dhidden%3BwhiteSpace%3Dwrap%3Bhtml%3D1%3B%22%20vertex%3D%221%22%20parent%3D%2218%22%3E%3CmxGeometry%20width%3D%2230%22%20height%3D%2230%22%20as%3D%22geometry%22%3E%3CmxRectangle%20width%3D%2230%22%20height%3D%2230%22%20as%3D%22alternateBounds%22%2F%3E%3C%2FmxGeometry%3E%3C%2FmxCell%3E%3CmxCell%20id%3D%2220%22%20style%3D%22shape%3DpartialRectangle%3Bconnectable%3D0%3BfillColor%3Dnone%3Btop%3D0%3Bleft%3D0%3Bbottom%3D0%3Bright%3D0%3Balign%3Dleft%3BspacingLeft%3D6%3Boverflow%3Dhidden%3BwhiteSpace%3Dwrap%3Bhtml%3D1%3B%22%20vertex%3D%221%22%20parent%3D%2218%22%3E%3CmxGeometry%20x%3D%2230%22%20width%3D%22150%22%20height%3D%2230%22%20as%3D%22geometry%22%3E%3CmxRectangle%20width%3D%22150%22%20height%3D%2230%22%20as%3D%22alternateBounds%22%2F%3E%3C%2FmxGeometry%3E%3C%2FmxCell%3E%3C%2Froot%3E%3C%2FmxGraphModel%3E&lt;/span&gt;" style="shape=table;startSize=30;container=1;collapsible=1;childLayout=tableLayout;fixedRows=1;rowLines=0;fontStyle=1;align=center;resizeLast=1;html=1;" vertex="1" parent="1">
          <mxGeometry x="450" y="378" width="180" height="150" as="geometry" />
        </mxCell>
        <mxCell id="6yhO1Al4ixMjp-c414iR-40" value="" style="shape=tableRow;horizontal=0;startSize=0;swimlaneHead=0;swimlaneBody=0;fillColor=none;collapsible=0;dropTarget=0;points=[[0,0.5],[1,0.5]];portConstraint=eastwest;top=0;left=0;right=0;bottom=1;" vertex="1" parent="6yhO1Al4ixMjp-c414iR-39">
          <mxGeometry y="30" width="180" height="30" as="geometry" />
        </mxCell>
        <mxCell id="6yhO1Al4ixMjp-c414iR-41" value="PK" style="shape=partialRectangle;connectable=0;fillColor=none;top=0;left=0;bottom=0;right=0;fontStyle=1;overflow=hidden;whiteSpace=wrap;html=1;" vertex="1" parent="6yhO1Al4ixMjp-c414iR-40">
          <mxGeometry width="30" height="30" as="geometry">
            <mxRectangle width="30" height="30" as="alternateBounds" />
          </mxGeometry>
        </mxCell>
        <mxCell id="6yhO1Al4ixMjp-c414iR-42" value="Id_ser" style="shape=partialRectangle;connectable=0;fillColor=none;top=0;left=0;bottom=0;right=0;align=left;spacingLeft=6;fontStyle=5;overflow=hidden;whiteSpace=wrap;html=1;" vertex="1" parent="6yhO1Al4ixMjp-c414iR-40">
          <mxGeometry x="30" width="150" height="30" as="geometry">
            <mxRectangle width="150" height="30" as="alternateBounds" />
          </mxGeometry>
        </mxCell>
        <mxCell id="6yhO1Al4ixMjp-c414iR-43" value="" style="shape=tableRow;horizontal=0;startSize=0;swimlaneHead=0;swimlaneBody=0;fillColor=none;collapsible=0;dropTarget=0;points=[[0,0.5],[1,0.5]];portConstraint=eastwest;top=0;left=0;right=0;bottom=0;" vertex="1" parent="6yhO1Al4ixMjp-c414iR-39">
          <mxGeometry y="60" width="180" height="30" as="geometry" />
        </mxCell>
        <mxCell id="6yhO1Al4ixMjp-c414iR-44" value="" style="shape=partialRectangle;connectable=0;fillColor=none;top=0;left=0;bottom=0;right=0;editable=1;overflow=hidden;whiteSpace=wrap;html=1;" vertex="1" parent="6yhO1Al4ixMjp-c414iR-43">
          <mxGeometry width="30" height="30" as="geometry">
            <mxRectangle width="30" height="30" as="alternateBounds" />
          </mxGeometry>
        </mxCell>
        <mxCell id="6yhO1Al4ixMjp-c414iR-45" value="Name_ser" style="shape=partialRectangle;connectable=0;fillColor=none;top=0;left=0;bottom=0;right=0;align=left;spacingLeft=6;overflow=hidden;whiteSpace=wrap;html=1;" vertex="1" parent="6yhO1Al4ixMjp-c414iR-43">
          <mxGeometry x="30" width="150" height="30" as="geometry">
            <mxRectangle width="150" height="30" as="alternateBounds" />
          </mxGeometry>
        </mxCell>
        <mxCell id="6yhO1Al4ixMjp-c414iR-46" value="" style="shape=tableRow;horizontal=0;startSize=0;swimlaneHead=0;swimlaneBody=0;fillColor=none;collapsible=0;dropTarget=0;points=[[0,0.5],[1,0.5]];portConstraint=eastwest;top=0;left=0;right=0;bottom=0;" vertex="1" parent="6yhO1Al4ixMjp-c414iR-39">
          <mxGeometry y="90" width="180" height="30" as="geometry" />
        </mxCell>
        <mxCell id="6yhO1Al4ixMjp-c414iR-47" value="" style="shape=partialRectangle;connectable=0;fillColor=none;top=0;left=0;bottom=0;right=0;editable=1;overflow=hidden;whiteSpace=wrap;html=1;" vertex="1" parent="6yhO1Al4ixMjp-c414iR-46">
          <mxGeometry width="30" height="30" as="geometry">
            <mxRectangle width="30" height="30" as="alternateBounds" />
          </mxGeometry>
        </mxCell>
        <mxCell id="6yhO1Al4ixMjp-c414iR-48" value="Price_ser" style="shape=partialRectangle;connectable=0;fillColor=none;top=0;left=0;bottom=0;right=0;align=left;spacingLeft=6;overflow=hidden;whiteSpace=wrap;html=1;" vertex="1" parent="6yhO1Al4ixMjp-c414iR-46">
          <mxGeometry x="30" width="150" height="30" as="geometry">
            <mxRectangle width="150" height="30" as="alternateBounds" />
          </mxGeometry>
        </mxCell>
        <mxCell id="6yhO1Al4ixMjp-c414iR-49" value="" style="shape=tableRow;horizontal=0;startSize=0;swimlaneHead=0;swimlaneBody=0;fillColor=none;collapsible=0;dropTarget=0;points=[[0,0.5],[1,0.5]];portConstraint=eastwest;top=0;left=0;right=0;bottom=0;" vertex="1" parent="6yhO1Al4ixMjp-c414iR-39">
          <mxGeometry y="120" width="180" height="30" as="geometry" />
        </mxCell>
        <mxCell id="6yhO1Al4ixMjp-c414iR-50" value="" style="shape=partialRectangle;connectable=0;fillColor=none;top=0;left=0;bottom=0;right=0;editable=1;overflow=hidden;whiteSpace=wrap;html=1;" vertex="1" parent="6yhO1Al4ixMjp-c414iR-49">
          <mxGeometry width="30" height="30" as="geometry">
            <mxRectangle width="30" height="30" as="alternateBounds" />
          </mxGeometry>
        </mxCell>
        <mxCell id="6yhO1Al4ixMjp-c414iR-51" value="IsActive_ser" style="shape=partialRectangle;connectable=0;fillColor=none;top=0;left=0;bottom=0;right=0;align=left;spacingLeft=6;overflow=hidden;whiteSpace=wrap;html=1;" vertex="1" parent="6yhO1Al4ixMjp-c414iR-49">
          <mxGeometry x="30" width="150" height="30" as="geometry">
            <mxRectangle width="150" height="30" as="alternateBounds" />
          </mxGeometry>
        </mxCell>
        <mxCell id="6yhO1Al4ixMjp-c414iR-58" value="Sales" style="shape=table;startSize=30;container=1;collapsible=1;childLayout=tableLayout;fixedRows=1;rowLines=0;fontStyle=1;align=center;resizeLast=1;html=1;" vertex="1" parent="1">
          <mxGeometry x="125" y="670" width="180" height="240" as="geometry" />
        </mxCell>
        <mxCell id="6yhO1Al4ixMjp-c414iR-59" value="" style="shape=tableRow;horizontal=0;startSize=0;swimlaneHead=0;swimlaneBody=0;fillColor=none;collapsible=0;dropTarget=0;points=[[0,0.5],[1,0.5]];portConstraint=eastwest;top=0;left=0;right=0;bottom=1;" vertex="1" parent="6yhO1Al4ixMjp-c414iR-58">
          <mxGeometry y="30" width="180" height="30" as="geometry" />
        </mxCell>
        <mxCell id="6yhO1Al4ixMjp-c414iR-60" value="PK" style="shape=partialRectangle;connectable=0;fillColor=none;top=0;left=0;bottom=0;right=0;fontStyle=1;overflow=hidden;whiteSpace=wrap;html=1;" vertex="1" parent="6yhO1Al4ixMjp-c414iR-59">
          <mxGeometry width="30" height="30" as="geometry">
            <mxRectangle width="30" height="30" as="alternateBounds" />
          </mxGeometry>
        </mxCell>
        <mxCell id="6yhO1Al4ixMjp-c414iR-61" value="Id_sal" style="shape=partialRectangle;connectable=0;fillColor=none;top=0;left=0;bottom=0;right=0;align=left;spacingLeft=6;fontStyle=5;overflow=hidden;whiteSpace=wrap;html=1;" vertex="1" parent="6yhO1Al4ixMjp-c414iR-59">
          <mxGeometry x="30" width="150" height="30" as="geometry">
            <mxRectangle width="150" height="30" as="alternateBounds" />
          </mxGeometry>
        </mxCell>
        <mxCell id="6yhO1Al4ixMjp-c414iR-62" value="" style="shape=tableRow;horizontal=0;startSize=0;swimlaneHead=0;swimlaneBody=0;fillColor=none;collapsible=0;dropTarget=0;points=[[0,0.5],[1,0.5]];portConstraint=eastwest;top=0;left=0;right=0;bottom=0;" vertex="1" parent="6yhO1Al4ixMjp-c414iR-58">
          <mxGeometry y="60" width="180" height="30" as="geometry" />
        </mxCell>
        <mxCell id="6yhO1Al4ixMjp-c414iR-63" value="FK" style="shape=partialRectangle;connectable=0;fillColor=none;top=0;left=0;bottom=0;right=0;editable=1;overflow=hidden;whiteSpace=wrap;html=1;" vertex="1" parent="6yhO1Al4ixMjp-c414iR-62">
          <mxGeometry width="30" height="30" as="geometry">
            <mxRectangle width="30" height="30" as="alternateBounds" />
          </mxGeometry>
        </mxCell>
        <mxCell id="6yhO1Al4ixMjp-c414iR-64" value="ClientId_sal" style="shape=partialRectangle;connectable=0;fillColor=none;top=0;left=0;bottom=0;right=0;align=left;spacingLeft=6;overflow=hidden;whiteSpace=wrap;html=1;" vertex="1" parent="6yhO1Al4ixMjp-c414iR-62">
          <mxGeometry x="30" width="150" height="30" as="geometry">
            <mxRectangle width="150" height="30" as="alternateBounds" />
          </mxGeometry>
        </mxCell>
        <mxCell id="6yhO1Al4ixMjp-c414iR-65" value="" style="shape=tableRow;horizontal=0;startSize=0;swimlaneHead=0;swimlaneBody=0;fillColor=none;collapsible=0;dropTarget=0;points=[[0,0.5],[1,0.5]];portConstraint=eastwest;top=0;left=0;right=0;bottom=0;" vertex="1" parent="6yhO1Al4ixMjp-c414iR-58">
          <mxGeometry y="90" width="180" height="30" as="geometry" />
        </mxCell>
        <mxCell id="6yhO1Al4ixMjp-c414iR-66" value="FK" style="shape=partialRectangle;connectable=0;fillColor=none;top=0;left=0;bottom=0;right=0;editable=1;overflow=hidden;whiteSpace=wrap;html=1;" vertex="1" parent="6yhO1Al4ixMjp-c414iR-65">
          <mxGeometry width="30" height="30" as="geometry">
            <mxRectangle width="30" height="30" as="alternateBounds" />
          </mxGeometry>
        </mxCell>
        <mxCell id="6yhO1Al4ixMjp-c414iR-67" value="WorkerId_sal" style="shape=partialRectangle;connectable=0;fillColor=none;top=0;left=0;bottom=0;right=0;align=left;spacingLeft=6;overflow=hidden;whiteSpace=wrap;html=1;" vertex="1" parent="6yhO1Al4ixMjp-c414iR-65">
          <mxGeometry x="30" width="150" height="30" as="geometry">
            <mxRectangle width="150" height="30" as="alternateBounds" />
          </mxGeometry>
        </mxCell>
        <mxCell id="6yhO1Al4ixMjp-c414iR-68" value="" style="shape=tableRow;horizontal=0;startSize=0;swimlaneHead=0;swimlaneBody=0;fillColor=none;collapsible=0;dropTarget=0;points=[[0,0.5],[1,0.5]];portConstraint=eastwest;top=0;left=0;right=0;bottom=0;" vertex="1" parent="6yhO1Al4ixMjp-c414iR-58">
          <mxGeometry y="120" width="180" height="30" as="geometry" />
        </mxCell>
        <mxCell id="6yhO1Al4ixMjp-c414iR-69" value="FK" style="shape=partialRectangle;connectable=0;fillColor=none;top=0;left=0;bottom=0;right=0;editable=1;overflow=hidden;whiteSpace=wrap;html=1;" vertex="1" parent="6yhO1Al4ixMjp-c414iR-68">
          <mxGeometry width="30" height="30" as="geometry">
            <mxRectangle width="30" height="30" as="alternateBounds" />
          </mxGeometry>
        </mxCell>
        <mxCell id="6yhO1Al4ixMjp-c414iR-70" value="PaymentMethodId_sal" style="shape=partialRectangle;connectable=0;fillColor=none;top=0;left=0;bottom=0;right=0;align=left;spacingLeft=6;overflow=hidden;whiteSpace=wrap;html=1;" vertex="1" parent="6yhO1Al4ixMjp-c414iR-68">
          <mxGeometry x="30" width="150" height="30" as="geometry">
            <mxRectangle width="150" height="30" as="alternateBounds" />
          </mxGeometry>
        </mxCell>
        <mxCell id="6yhO1Al4ixMjp-c414iR-71" style="shape=tableRow;horizontal=0;startSize=0;swimlaneHead=0;swimlaneBody=0;fillColor=none;collapsible=0;dropTarget=0;points=[[0,0.5],[1,0.5]];portConstraint=eastwest;top=0;left=0;right=0;bottom=0;" vertex="1" parent="6yhO1Al4ixMjp-c414iR-58">
          <mxGeometry y="150" width="180" height="30" as="geometry" />
        </mxCell>
        <mxCell id="6yhO1Al4ixMjp-c414iR-72" style="shape=partialRectangle;connectable=0;fillColor=none;top=0;left=0;bottom=0;right=0;editable=1;overflow=hidden;whiteSpace=wrap;html=1;" vertex="1" parent="6yhO1Al4ixMjp-c414iR-71">
          <mxGeometry width="30" height="30" as="geometry">
            <mxRectangle width="30" height="30" as="alternateBounds" />
          </mxGeometry>
        </mxCell>
        <mxCell id="6yhO1Al4ixMjp-c414iR-73" value="Date_sal" style="shape=partialRectangle;connectable=0;fillColor=none;top=0;left=0;bottom=0;right=0;align=left;spacingLeft=6;overflow=hidden;whiteSpace=wrap;html=1;" vertex="1" parent="6yhO1Al4ixMjp-c414iR-71">
          <mxGeometry x="30" width="150" height="30" as="geometry">
            <mxRectangle width="150" height="30" as="alternateBounds" />
          </mxGeometry>
        </mxCell>
        <mxCell id="6yhO1Al4ixMjp-c414iR-74" style="shape=tableRow;horizontal=0;startSize=0;swimlaneHead=0;swimlaneBody=0;fillColor=none;collapsible=0;dropTarget=0;points=[[0,0.5],[1,0.5]];portConstraint=eastwest;top=0;left=0;right=0;bottom=0;" vertex="1" parent="6yhO1Al4ixMjp-c414iR-58">
          <mxGeometry y="180" width="180" height="30" as="geometry" />
        </mxCell>
        <mxCell id="6yhO1Al4ixMjp-c414iR-75" style="shape=partialRectangle;connectable=0;fillColor=none;top=0;left=0;bottom=0;right=0;editable=1;overflow=hidden;whiteSpace=wrap;html=1;" vertex="1" parent="6yhO1Al4ixMjp-c414iR-74">
          <mxGeometry width="30" height="30" as="geometry">
            <mxRectangle width="30" height="30" as="alternateBounds" />
          </mxGeometry>
        </mxCell>
        <mxCell id="6yhO1Al4ixMjp-c414iR-76" value="Total_sal" style="shape=partialRectangle;connectable=0;fillColor=none;top=0;left=0;bottom=0;right=0;align=left;spacingLeft=6;overflow=hidden;whiteSpace=wrap;html=1;" vertex="1" parent="6yhO1Al4ixMjp-c414iR-74">
          <mxGeometry x="30" width="150" height="30" as="geometry">
            <mxRectangle width="150" height="30" as="alternateBounds" />
          </mxGeometry>
        </mxCell>
        <mxCell id="6yhO1Al4ixMjp-c414iR-99" style="shape=tableRow;horizontal=0;startSize=0;swimlaneHead=0;swimlaneBody=0;fillColor=none;collapsible=0;dropTarget=0;points=[[0,0.5],[1,0.5]];portConstraint=eastwest;top=0;left=0;right=0;bottom=0;" vertex="1" parent="6yhO1Al4ixMjp-c414iR-58">
          <mxGeometry y="210" width="180" height="30" as="geometry" />
        </mxCell>
        <mxCell id="6yhO1Al4ixMjp-c414iR-100" style="shape=partialRectangle;connectable=0;fillColor=none;top=0;left=0;bottom=0;right=0;editable=1;overflow=hidden;whiteSpace=wrap;html=1;" vertex="1" parent="6yhO1Al4ixMjp-c414iR-99">
          <mxGeometry width="30" height="30" as="geometry">
            <mxRectangle width="30" height="30" as="alternateBounds" />
          </mxGeometry>
        </mxCell>
        <mxCell id="6yhO1Al4ixMjp-c414iR-101" value="IsActive_sal" style="shape=partialRectangle;connectable=0;fillColor=none;top=0;left=0;bottom=0;right=0;align=left;spacingLeft=6;overflow=hidden;whiteSpace=wrap;html=1;" vertex="1" parent="6yhO1Al4ixMjp-c414iR-99">
          <mxGeometry x="30" width="150" height="30" as="geometry">
            <mxRectangle width="150" height="30" as="alternateBounds" />
          </mxGeometry>
        </mxCell>
        <mxCell id="6yhO1Al4ixMjp-c414iR-77" value="DetailSales" style="shape=table;startSize=30;container=1;collapsible=1;childLayout=tableLayout;fixedRows=1;rowLines=0;fontStyle=1;align=center;resizeLast=1;html=1;" vertex="1" parent="1">
          <mxGeometry x="365" y="670" width="180" height="210" as="geometry" />
        </mxCell>
        <mxCell id="6yhO1Al4ixMjp-c414iR-78" value="" style="shape=tableRow;horizontal=0;startSize=0;swimlaneHead=0;swimlaneBody=0;fillColor=none;collapsible=0;dropTarget=0;points=[[0,0.5],[1,0.5]];portConstraint=eastwest;top=0;left=0;right=0;bottom=1;" vertex="1" parent="6yhO1Al4ixMjp-c414iR-77">
          <mxGeometry y="30" width="180" height="30" as="geometry" />
        </mxCell>
        <mxCell id="6yhO1Al4ixMjp-c414iR-79" value="PK" style="shape=partialRectangle;connectable=0;fillColor=none;top=0;left=0;bottom=0;right=0;fontStyle=1;overflow=hidden;whiteSpace=wrap;html=1;" vertex="1" parent="6yhO1Al4ixMjp-c414iR-78">
          <mxGeometry width="30" height="30" as="geometry">
            <mxRectangle width="30" height="30" as="alternateBounds" />
          </mxGeometry>
        </mxCell>
        <mxCell id="6yhO1Al4ixMjp-c414iR-80" value="Id_det" style="shape=partialRectangle;connectable=0;fillColor=none;top=0;left=0;bottom=0;right=0;align=left;spacingLeft=6;fontStyle=5;overflow=hidden;whiteSpace=wrap;html=1;" vertex="1" parent="6yhO1Al4ixMjp-c414iR-78">
          <mxGeometry x="30" width="150" height="30" as="geometry">
            <mxRectangle width="150" height="30" as="alternateBounds" />
          </mxGeometry>
        </mxCell>
        <mxCell id="6yhO1Al4ixMjp-c414iR-81" value="" style="shape=tableRow;horizontal=0;startSize=0;swimlaneHead=0;swimlaneBody=0;fillColor=none;collapsible=0;dropTarget=0;points=[[0,0.5],[1,0.5]];portConstraint=eastwest;top=0;left=0;right=0;bottom=0;" vertex="1" parent="6yhO1Al4ixMjp-c414iR-77">
          <mxGeometry y="60" width="180" height="30" as="geometry" />
        </mxCell>
        <mxCell id="6yhO1Al4ixMjp-c414iR-82" value="FK" style="shape=partialRectangle;connectable=0;fillColor=none;top=0;left=0;bottom=0;right=0;editable=1;overflow=hidden;whiteSpace=wrap;html=1;" vertex="1" parent="6yhO1Al4ixMjp-c414iR-81">
          <mxGeometry width="30" height="30" as="geometry">
            <mxRectangle width="30" height="30" as="alternateBounds" />
          </mxGeometry>
        </mxCell>
        <mxCell id="6yhO1Al4ixMjp-c414iR-83" value="SaleId_det" style="shape=partialRectangle;connectable=0;fillColor=none;top=0;left=0;bottom=0;right=0;align=left;spacingLeft=6;overflow=hidden;whiteSpace=wrap;html=1;" vertex="1" parent="6yhO1Al4ixMjp-c414iR-81">
          <mxGeometry x="30" width="150" height="30" as="geometry">
            <mxRectangle width="150" height="30" as="alternateBounds" />
          </mxGeometry>
        </mxCell>
        <mxCell id="6yhO1Al4ixMjp-c414iR-84" value="" style="shape=tableRow;horizontal=0;startSize=0;swimlaneHead=0;swimlaneBody=0;fillColor=none;collapsible=0;dropTarget=0;points=[[0,0.5],[1,0.5]];portConstraint=eastwest;top=0;left=0;right=0;bottom=0;" vertex="1" parent="6yhO1Al4ixMjp-c414iR-77">
          <mxGeometry y="90" width="180" height="30" as="geometry" />
        </mxCell>
        <mxCell id="6yhO1Al4ixMjp-c414iR-85" value="FK" style="shape=partialRectangle;connectable=0;fillColor=none;top=0;left=0;bottom=0;right=0;editable=1;overflow=hidden;whiteSpace=wrap;html=1;" vertex="1" parent="6yhO1Al4ixMjp-c414iR-84">
          <mxGeometry width="30" height="30" as="geometry">
            <mxRectangle width="30" height="30" as="alternateBounds" />
          </mxGeometry>
        </mxCell>
        <mxCell id="6yhO1Al4ixMjp-c414iR-86" value="ServiceId_det" style="shape=partialRectangle;connectable=0;fillColor=none;top=0;left=0;bottom=0;right=0;align=left;spacingLeft=6;overflow=hidden;whiteSpace=wrap;html=1;" vertex="1" parent="6yhO1Al4ixMjp-c414iR-84">
          <mxGeometry x="30" width="150" height="30" as="geometry">
            <mxRectangle width="150" height="30" as="alternateBounds" />
          </mxGeometry>
        </mxCell>
        <mxCell id="6yhO1Al4ixMjp-c414iR-87" value="" style="shape=tableRow;horizontal=0;startSize=0;swimlaneHead=0;swimlaneBody=0;fillColor=none;collapsible=0;dropTarget=0;points=[[0,0.5],[1,0.5]];portConstraint=eastwest;top=0;left=0;right=0;bottom=0;" vertex="1" parent="6yhO1Al4ixMjp-c414iR-77">
          <mxGeometry y="120" width="180" height="30" as="geometry" />
        </mxCell>
        <mxCell id="6yhO1Al4ixMjp-c414iR-88" value="" style="shape=partialRectangle;connectable=0;fillColor=none;top=0;left=0;bottom=0;right=0;editable=1;overflow=hidden;whiteSpace=wrap;html=1;" vertex="1" parent="6yhO1Al4ixMjp-c414iR-87">
          <mxGeometry width="30" height="30" as="geometry">
            <mxRectangle width="30" height="30" as="alternateBounds" />
          </mxGeometry>
        </mxCell>
        <mxCell id="6yhO1Al4ixMjp-c414iR-89" value="Quantity_det" style="shape=partialRectangle;connectable=0;fillColor=none;top=0;left=0;bottom=0;right=0;align=left;spacingLeft=6;overflow=hidden;whiteSpace=wrap;html=1;" vertex="1" parent="6yhO1Al4ixMjp-c414iR-87">
          <mxGeometry x="30" width="150" height="30" as="geometry">
            <mxRectangle width="150" height="30" as="alternateBounds" />
          </mxGeometry>
        </mxCell>
        <mxCell id="6yhO1Al4ixMjp-c414iR-90" style="shape=tableRow;horizontal=0;startSize=0;swimlaneHead=0;swimlaneBody=0;fillColor=none;collapsible=0;dropTarget=0;points=[[0,0.5],[1,0.5]];portConstraint=eastwest;top=0;left=0;right=0;bottom=0;" vertex="1" parent="6yhO1Al4ixMjp-c414iR-77">
          <mxGeometry y="150" width="180" height="30" as="geometry" />
        </mxCell>
        <mxCell id="6yhO1Al4ixMjp-c414iR-91" style="shape=partialRectangle;connectable=0;fillColor=none;top=0;left=0;bottom=0;right=0;editable=1;overflow=hidden;whiteSpace=wrap;html=1;" vertex="1" parent="6yhO1Al4ixMjp-c414iR-90">
          <mxGeometry width="30" height="30" as="geometry">
            <mxRectangle width="30" height="30" as="alternateBounds" />
          </mxGeometry>
        </mxCell>
        <mxCell id="6yhO1Al4ixMjp-c414iR-92" value="Amount_det" style="shape=partialRectangle;connectable=0;fillColor=none;top=0;left=0;bottom=0;right=0;align=left;spacingLeft=6;overflow=hidden;whiteSpace=wrap;html=1;" vertex="1" parent="6yhO1Al4ixMjp-c414iR-90">
          <mxGeometry x="30" width="150" height="30" as="geometry">
            <mxRectangle width="150" height="30" as="alternateBounds" />
          </mxGeometry>
        </mxCell>
        <mxCell id="6yhO1Al4ixMjp-c414iR-93" style="shape=tableRow;horizontal=0;startSize=0;swimlaneHead=0;swimlaneBody=0;fillColor=none;collapsible=0;dropTarget=0;points=[[0,0.5],[1,0.5]];portConstraint=eastwest;top=0;left=0;right=0;bottom=0;" vertex="1" parent="6yhO1Al4ixMjp-c414iR-77">
          <mxGeometry y="180" width="180" height="30" as="geometry" />
        </mxCell>
        <mxCell id="6yhO1Al4ixMjp-c414iR-94" style="shape=partialRectangle;connectable=0;fillColor=none;top=0;left=0;bottom=0;right=0;editable=1;overflow=hidden;whiteSpace=wrap;html=1;" vertex="1" parent="6yhO1Al4ixMjp-c414iR-93">
          <mxGeometry width="30" height="30" as="geometry">
            <mxRectangle width="30" height="30" as="alternateBounds" />
          </mxGeometry>
        </mxCell>
        <mxCell id="6yhO1Al4ixMjp-c414iR-95" value="IsActive_det" style="shape=partialRectangle;connectable=0;fillColor=none;top=0;left=0;bottom=0;right=0;align=left;spacingLeft=6;overflow=hidden;whiteSpace=wrap;html=1;" vertex="1" parent="6yhO1Al4ixMjp-c414iR-93">
          <mxGeometry x="30" width="150" height="30" as="geometry">
            <mxRectangle width="150" height="30" as="alternateBounds" />
          </mxGeometry>
        </mxCell>
        <mxCell id="6yhO1Al4ixMjp-c414iR-102" value="PaymentMethods" style="rounded=0;whiteSpace=wrap;html=1;" vertex="1" parent="1">
          <mxGeometry x="450" y="240" width="120" height="30" as="geometry" />
        </mxCell>
        <mxCell id="6yhO1Al4ixMjp-c414iR-103" value="PaymentMethods" style="shape=table;startSize=30;container=1;collapsible=1;childLayout=tableLayout;fixedRows=1;rowLines=0;fontStyle=1;align=center;resizeLast=1;html=1;" vertex="1" parent="1">
          <mxGeometry x="600" y="670" width="180" height="120" as="geometry" />
        </mxCell>
        <mxCell id="6yhO1Al4ixMjp-c414iR-104" value="" style="shape=tableRow;horizontal=0;startSize=0;swimlaneHead=0;swimlaneBody=0;fillColor=none;collapsible=0;dropTarget=0;points=[[0,0.5],[1,0.5]];portConstraint=eastwest;top=0;left=0;right=0;bottom=1;" vertex="1" parent="6yhO1Al4ixMjp-c414iR-103">
          <mxGeometry y="30" width="180" height="30" as="geometry" />
        </mxCell>
        <mxCell id="6yhO1Al4ixMjp-c414iR-105" value="PK" style="shape=partialRectangle;connectable=0;fillColor=none;top=0;left=0;bottom=0;right=0;fontStyle=1;overflow=hidden;whiteSpace=wrap;html=1;" vertex="1" parent="6yhO1Al4ixMjp-c414iR-104">
          <mxGeometry width="30" height="30" as="geometry">
            <mxRectangle width="30" height="30" as="alternateBounds" />
          </mxGeometry>
        </mxCell>
        <mxCell id="6yhO1Al4ixMjp-c414iR-106" value="Id_pay" style="shape=partialRectangle;connectable=0;fillColor=none;top=0;left=0;bottom=0;right=0;align=left;spacingLeft=6;fontStyle=5;overflow=hidden;whiteSpace=wrap;html=1;" vertex="1" parent="6yhO1Al4ixMjp-c414iR-104">
          <mxGeometry x="30" width="150" height="30" as="geometry">
            <mxRectangle width="150" height="30" as="alternateBounds" />
          </mxGeometry>
        </mxCell>
        <mxCell id="6yhO1Al4ixMjp-c414iR-107" value="" style="shape=tableRow;horizontal=0;startSize=0;swimlaneHead=0;swimlaneBody=0;fillColor=none;collapsible=0;dropTarget=0;points=[[0,0.5],[1,0.5]];portConstraint=eastwest;top=0;left=0;right=0;bottom=0;" vertex="1" parent="6yhO1Al4ixMjp-c414iR-103">
          <mxGeometry y="60" width="180" height="30" as="geometry" />
        </mxCell>
        <mxCell id="6yhO1Al4ixMjp-c414iR-108" value="" style="shape=partialRectangle;connectable=0;fillColor=none;top=0;left=0;bottom=0;right=0;editable=1;overflow=hidden;whiteSpace=wrap;html=1;" vertex="1" parent="6yhO1Al4ixMjp-c414iR-107">
          <mxGeometry width="30" height="30" as="geometry">
            <mxRectangle width="30" height="30" as="alternateBounds" />
          </mxGeometry>
        </mxCell>
        <mxCell id="6yhO1Al4ixMjp-c414iR-109" value="Name_pay" style="shape=partialRectangle;connectable=0;fillColor=none;top=0;left=0;bottom=0;right=0;align=left;spacingLeft=6;overflow=hidden;whiteSpace=wrap;html=1;" vertex="1" parent="6yhO1Al4ixMjp-c414iR-107">
          <mxGeometry x="30" width="150" height="30" as="geometry">
            <mxRectangle width="150" height="30" as="alternateBounds" />
          </mxGeometry>
        </mxCell>
        <mxCell id="6yhO1Al4ixMjp-c414iR-110" value="" style="shape=tableRow;horizontal=0;startSize=0;swimlaneHead=0;swimlaneBody=0;fillColor=none;collapsible=0;dropTarget=0;points=[[0,0.5],[1,0.5]];portConstraint=eastwest;top=0;left=0;right=0;bottom=0;" vertex="1" parent="6yhO1Al4ixMjp-c414iR-103">
          <mxGeometry y="90" width="180" height="30" as="geometry" />
        </mxCell>
        <mxCell id="6yhO1Al4ixMjp-c414iR-111" value="" style="shape=partialRectangle;connectable=0;fillColor=none;top=0;left=0;bottom=0;right=0;editable=1;overflow=hidden;whiteSpace=wrap;html=1;" vertex="1" parent="6yhO1Al4ixMjp-c414iR-110">
          <mxGeometry width="30" height="30" as="geometry">
            <mxRectangle width="30" height="30" as="alternateBounds" />
          </mxGeometry>
        </mxCell>
        <mxCell id="6yhO1Al4ixMjp-c414iR-112" value="IsActive_pay" style="shape=partialRectangle;connectable=0;fillColor=none;top=0;left=0;bottom=0;right=0;align=left;spacingLeft=6;overflow=hidden;whiteSpace=wrap;html=1;" vertex="1" parent="6yhO1Al4ixMjp-c414iR-110">
          <mxGeometry x="30" width="150" height="30" as="geometry">
            <mxRectangle width="150" height="30" as="alternateBounds" />
          </mxGeometry>
        </mxCell>
      </root>
    </mxGraphModel>
  </diagram>
  <diagram id="mf-hpAjlh0_A8ZwuKF7Q" name="Pantallas">
    <mxGraphModel dx="1434" dy="836" grid="1" gridSize="10" guides="1" tooltips="1" connect="1" arrows="1" fold="1" page="1" pageScale="1" pageWidth="1920" pageHeight="1200" math="0" shadow="0">
      <root>
        <mxCell id="0" />
        <mxCell id="1" parent="0" />
        <mxCell id="A7mFoOOzqiziepukn4ZC-1" value="" style="rounded=0;whiteSpace=wrap;html=1;" parent="1" vertex="1">
          <mxGeometry x="20" y="90" width="490" height="280" as="geometry" />
        </mxCell>
        <mxCell id="A7mFoOOzqiziepukn4ZC-3" value="" style="rounded=1;whiteSpace=wrap;html=1;" parent="1" vertex="1">
          <mxGeometry x="145" y="40" width="240" height="30" as="geometry" />
        </mxCell>
        <mxCell id="A7mFoOOzqiziepukn4ZC-4" value="Inicio" style="text;html=1;align=center;verticalAlign=middle;whiteSpace=wrap;rounded=0;" parent="1" vertex="1">
          <mxGeometry x="235" y="40" width="60" height="30" as="geometry" />
        </mxCell>
        <mxCell id="A7mFoOOzqiziepukn4ZC-5" value="" style="rounded=0;whiteSpace=wrap;html=1;" parent="1" vertex="1">
          <mxGeometry x="20" y="90" width="110" height="280" as="geometry" />
        </mxCell>
        <mxCell id="A7mFoOOzqiziepukn4ZC-6" value="" style="rounded=0;whiteSpace=wrap;html=1;" parent="1" vertex="1">
          <mxGeometry x="20" y="170" width="110" height="30" as="geometry" />
        </mxCell>
        <mxCell id="A7mFoOOzqiziepukn4ZC-7" value="Clientes" style="text;html=1;align=center;verticalAlign=middle;whiteSpace=wrap;rounded=0;" parent="1" vertex="1">
          <mxGeometry x="45" y="170" width="60" height="30" as="geometry" />
        </mxCell>
        <mxCell id="A7mFoOOzqiziepukn4ZC-9" value="" style="rounded=0;whiteSpace=wrap;html=1;" parent="1" vertex="1">
          <mxGeometry x="20" y="200" width="110" height="30" as="geometry" />
        </mxCell>
        <mxCell id="A7mFoOOzqiziepukn4ZC-10" value="Trabajadores" style="text;html=1;align=center;verticalAlign=middle;whiteSpace=wrap;rounded=0;" parent="1" vertex="1">
          <mxGeometry x="45" y="200" width="60" height="30" as="geometry" />
        </mxCell>
        <mxCell id="A7mFoOOzqiziepukn4ZC-11" value="" style="rounded=0;whiteSpace=wrap;html=1;" parent="1" vertex="1">
          <mxGeometry x="20" y="230" width="110" height="30" as="geometry" />
        </mxCell>
        <mxCell id="A7mFoOOzqiziepukn4ZC-12" value="Servicios" style="text;html=1;align=center;verticalAlign=middle;whiteSpace=wrap;rounded=0;" parent="1" vertex="1">
          <mxGeometry x="45" y="230" width="60" height="30" as="geometry" />
        </mxCell>
        <mxCell id="A7mFoOOzqiziepukn4ZC-13" value="" style="rounded=0;whiteSpace=wrap;html=1;" parent="1" vertex="1">
          <mxGeometry x="20" y="260" width="110" height="30" as="geometry" />
        </mxCell>
        <mxCell id="A7mFoOOzqiziepukn4ZC-14" value="Historial" style="text;html=1;align=center;verticalAlign=middle;whiteSpace=wrap;rounded=0;" parent="1" vertex="1">
          <mxGeometry x="45" y="260" width="60" height="30" as="geometry" />
        </mxCell>
        <mxCell id="A7mFoOOzqiziepukn4ZC-15" value="LOGO" style="text;html=1;align=center;verticalAlign=middle;whiteSpace=wrap;rounded=0;" parent="1" vertex="1">
          <mxGeometry x="280" y="215" width="60" height="30" as="geometry" />
        </mxCell>
        <mxCell id="A7mFoOOzqiziepukn4ZC-16" value="Boton de Inicio" style="text;html=1;align=center;verticalAlign=middle;whiteSpace=wrap;rounded=0;" parent="1" vertex="1">
          <mxGeometry x="45" y="110" width="60" height="30" as="geometry" />
        </mxCell>
        <mxCell id="A7mFoOOzqiziepukn4ZC-17" value="Apagar app" style="text;html=1;align=center;verticalAlign=middle;whiteSpace=wrap;rounded=0;" parent="1" vertex="1">
          <mxGeometry x="45" y="330" width="60" height="30" as="geometry" />
        </mxCell>
        <mxCell id="A7mFoOOzqiziepukn4ZC-18" value="" style="rounded=1;whiteSpace=wrap;html=1;" parent="1" vertex="1">
          <mxGeometry x="705" y="40" width="240" height="30" as="geometry" />
        </mxCell>
        <mxCell id="A7mFoOOzqiziepukn4ZC-19" value="Clientes" style="text;html=1;align=center;verticalAlign=middle;whiteSpace=wrap;rounded=0;" parent="1" vertex="1">
          <mxGeometry x="795" y="40" width="60" height="30" as="geometry" />
        </mxCell>
        <mxCell id="A7mFoOOzqiziepukn4ZC-23" value="" style="rounded=1;whiteSpace=wrap;html=1;" parent="1" vertex="1">
          <mxGeometry x="1320" y="40" width="240" height="30" as="geometry" />
        </mxCell>
        <mxCell id="A7mFoOOzqiziepukn4ZC-24" value="Trabajadores" style="text;html=1;align=center;verticalAlign=middle;whiteSpace=wrap;rounded=0;" parent="1" vertex="1">
          <mxGeometry x="1410" y="40" width="60" height="30" as="geometry" />
        </mxCell>
        <mxCell id="A7mFoOOzqiziepukn4ZC-25" value="" style="rounded=1;whiteSpace=wrap;html=1;" parent="1" vertex="1">
          <mxGeometry x="145" y="420" width="240" height="30" as="geometry" />
        </mxCell>
        <mxCell id="A7mFoOOzqiziepukn4ZC-26" value="Servicios" style="text;html=1;align=center;verticalAlign=middle;whiteSpace=wrap;rounded=0;" parent="1" vertex="1">
          <mxGeometry x="235" y="420" width="60" height="30" as="geometry" />
        </mxCell>
        <mxCell id="A7mFoOOzqiziepukn4ZC-27" value="" style="rounded=1;whiteSpace=wrap;html=1;" parent="1" vertex="1">
          <mxGeometry x="1915" y="40" width="240" height="30" as="geometry" />
        </mxCell>
        <mxCell id="A7mFoOOzqiziepukn4ZC-28" value="Historial" style="text;html=1;align=center;verticalAlign=middle;whiteSpace=wrap;rounded=0;" parent="1" vertex="1">
          <mxGeometry x="2005" y="40" width="60" height="30" as="geometry" />
        </mxCell>
        <mxCell id="A7mFoOOzqiziepukn4ZC-30" value="" style="rounded=0;whiteSpace=wrap;html=1;movable=1;resizable=1;rotatable=1;deletable=1;editable=1;locked=0;connectable=1;" parent="1" vertex="1">
          <mxGeometry x="580" y="90" width="490" height="280" as="geometry" />
        </mxCell>
        <mxCell id="A7mFoOOzqiziepukn4ZC-31" value="" style="rounded=0;whiteSpace=wrap;html=1;" parent="1" vertex="1">
          <mxGeometry x="580" y="90" width="110" height="280" as="geometry" />
        </mxCell>
        <mxCell id="A7mFoOOzqiziepukn4ZC-32" value="" style="rounded=0;whiteSpace=wrap;html=1;fillColor=#6a00ff;fontColor=#ffffff;strokeColor=#3700CC;" parent="1" vertex="1">
          <mxGeometry x="580" y="189" width="110" height="30" as="geometry" />
        </mxCell>
        <mxCell id="A7mFoOOzqiziepukn4ZC-33" value="Clientes" style="text;html=1;align=center;verticalAlign=middle;whiteSpace=wrap;rounded=0;" parent="1" vertex="1">
          <mxGeometry x="605" y="189" width="60" height="30" as="geometry" />
        </mxCell>
        <mxCell id="A7mFoOOzqiziepukn4ZC-34" value="" style="rounded=0;whiteSpace=wrap;html=1;" parent="1" vertex="1">
          <mxGeometry x="580" y="219" width="110" height="30" as="geometry" />
        </mxCell>
        <mxCell id="A7mFoOOzqiziepukn4ZC-35" value="Trabajadores" style="text;html=1;align=center;verticalAlign=middle;whiteSpace=wrap;rounded=0;" parent="1" vertex="1">
          <mxGeometry x="605" y="219" width="60" height="30" as="geometry" />
        </mxCell>
        <mxCell id="A7mFoOOzqiziepukn4ZC-36" value="" style="rounded=0;whiteSpace=wrap;html=1;" parent="1" vertex="1">
          <mxGeometry x="580" y="249" width="110" height="30" as="geometry" />
        </mxCell>
        <mxCell id="A7mFoOOzqiziepukn4ZC-37" value="Servicios" style="text;html=1;align=center;verticalAlign=middle;whiteSpace=wrap;rounded=0;" parent="1" vertex="1">
          <mxGeometry x="605" y="249" width="60" height="30" as="geometry" />
        </mxCell>
        <mxCell id="A7mFoOOzqiziepukn4ZC-38" value="" style="rounded=0;whiteSpace=wrap;html=1;" parent="1" vertex="1">
          <mxGeometry x="580" y="279" width="110" height="30" as="geometry" />
        </mxCell>
        <mxCell id="A7mFoOOzqiziepukn4ZC-39" value="Historial" style="text;html=1;align=center;verticalAlign=middle;whiteSpace=wrap;rounded=0;" parent="1" vertex="1">
          <mxGeometry x="605" y="279" width="60" height="30" as="geometry" />
        </mxCell>
        <mxCell id="A7mFoOOzqiziepukn4ZC-41" value="Boton de Inicio" style="text;html=1;align=center;verticalAlign=middle;whiteSpace=wrap;rounded=0;" parent="1" vertex="1">
          <mxGeometry x="605" y="110" width="60" height="30" as="geometry" />
        </mxCell>
        <mxCell id="A7mFoOOzqiziepukn4ZC-42" value="Apagar app" style="text;html=1;align=center;verticalAlign=middle;whiteSpace=wrap;rounded=0;" parent="1" vertex="1">
          <mxGeometry x="605" y="320" width="60" height="30" as="geometry" />
        </mxCell>
        <mxCell id="7DQiAw3LRBfs8X1S_fTX-1" value="" style="rounded=0;whiteSpace=wrap;html=1;" parent="1" vertex="1">
          <mxGeometry x="580" y="159" width="110" height="30" as="geometry" />
        </mxCell>
        <mxCell id="7DQiAw3LRBfs8X1S_fTX-2" value="Laburito" style="text;html=1;align=center;verticalAlign=middle;whiteSpace=wrap;rounded=0;" parent="1" vertex="1">
          <mxGeometry x="605" y="159" width="60" height="30" as="geometry" />
        </mxCell>
        <mxCell id="7DQiAw3LRBfs8X1S_fTX-3" value="" style="rounded=1;whiteSpace=wrap;html=1;" parent="1" vertex="1">
          <mxGeometry x="780" y="110" width="150" height="20" as="geometry" />
        </mxCell>
        <mxCell id="7DQiAw3LRBfs8X1S_fTX-4" value="Cargar Cliente" style="text;html=1;align=center;verticalAlign=middle;whiteSpace=wrap;rounded=0;" parent="1" vertex="1">
          <mxGeometry x="807.5" y="100" width="95" height="40" as="geometry" />
        </mxCell>
        <mxCell id="s3hDOaSbLEswyWiAhaWJ-5" value="Botón de carga" style="rounded=1;whiteSpace=wrap;html=1;" parent="1" vertex="1">
          <mxGeometry x="927" y="160" width="117" height="20" as="geometry" />
        </mxCell>
        <mxCell id="s3hDOaSbLEswyWiAhaWJ-33" value="" style="rounded=0;whiteSpace=wrap;html=1;movable=0;resizable=0;rotatable=0;deletable=0;editable=0;locked=1;connectable=0;" parent="1" vertex="1">
          <mxGeometry x="1195" y="90" width="490" height="280" as="geometry" />
        </mxCell>
        <mxCell id="s3hDOaSbLEswyWiAhaWJ-34" value="" style="rounded=0;whiteSpace=wrap;html=1;" parent="1" vertex="1">
          <mxGeometry x="1195" y="90" width="110" height="280" as="geometry" />
        </mxCell>
        <mxCell id="s3hDOaSbLEswyWiAhaWJ-35" value="" style="rounded=0;whiteSpace=wrap;html=1;" parent="1" vertex="1">
          <mxGeometry x="1195" y="189" width="110" height="30" as="geometry" />
        </mxCell>
        <mxCell id="s3hDOaSbLEswyWiAhaWJ-36" value="Clientes" style="text;html=1;align=center;verticalAlign=middle;whiteSpace=wrap;rounded=0;" parent="1" vertex="1">
          <mxGeometry x="1220" y="189" width="60" height="30" as="geometry" />
        </mxCell>
        <mxCell id="s3hDOaSbLEswyWiAhaWJ-37" value="" style="rounded=0;whiteSpace=wrap;html=1;fillColor=#6a00ff;fontColor=#ffffff;strokeColor=#3700CC;" parent="1" vertex="1">
          <mxGeometry x="1195" y="219" width="110" height="30" as="geometry" />
        </mxCell>
        <mxCell id="s3hDOaSbLEswyWiAhaWJ-38" value="Trabajadores" style="text;html=1;align=center;verticalAlign=middle;whiteSpace=wrap;rounded=0;" parent="1" vertex="1">
          <mxGeometry x="1220" y="219" width="60" height="30" as="geometry" />
        </mxCell>
        <mxCell id="s3hDOaSbLEswyWiAhaWJ-39" value="" style="rounded=0;whiteSpace=wrap;html=1;" parent="1" vertex="1">
          <mxGeometry x="1195" y="249" width="110" height="30" as="geometry" />
        </mxCell>
        <mxCell id="s3hDOaSbLEswyWiAhaWJ-40" value="Servicios" style="text;html=1;align=center;verticalAlign=middle;whiteSpace=wrap;rounded=0;" parent="1" vertex="1">
          <mxGeometry x="1220" y="249" width="60" height="30" as="geometry" />
        </mxCell>
        <mxCell id="s3hDOaSbLEswyWiAhaWJ-41" value="" style="rounded=0;whiteSpace=wrap;html=1;" parent="1" vertex="1">
          <mxGeometry x="1195" y="279" width="110" height="30" as="geometry" />
        </mxCell>
        <mxCell id="s3hDOaSbLEswyWiAhaWJ-42" value="Historial" style="text;html=1;align=center;verticalAlign=middle;whiteSpace=wrap;rounded=0;" parent="1" vertex="1">
          <mxGeometry x="1220" y="279" width="60" height="30" as="geometry" />
        </mxCell>
        <mxCell id="s3hDOaSbLEswyWiAhaWJ-43" value="Boton de Inicio" style="text;html=1;align=center;verticalAlign=middle;whiteSpace=wrap;rounded=0;" parent="1" vertex="1">
          <mxGeometry x="1220" y="110" width="60" height="30" as="geometry" />
        </mxCell>
        <mxCell id="s3hDOaSbLEswyWiAhaWJ-44" value="Apagar app" style="text;html=1;align=center;verticalAlign=middle;whiteSpace=wrap;rounded=0;" parent="1" vertex="1">
          <mxGeometry x="1220" y="320" width="60" height="30" as="geometry" />
        </mxCell>
        <mxCell id="s3hDOaSbLEswyWiAhaWJ-45" value="" style="rounded=0;whiteSpace=wrap;html=1;" parent="1" vertex="1">
          <mxGeometry x="1195" y="159" width="110" height="30" as="geometry" />
        </mxCell>
        <mxCell id="s3hDOaSbLEswyWiAhaWJ-46" value="Laburito" style="text;html=1;align=center;verticalAlign=middle;whiteSpace=wrap;rounded=0;" parent="1" vertex="1">
          <mxGeometry x="1220" y="159" width="60" height="30" as="geometry" />
        </mxCell>
        <mxCell id="s3hDOaSbLEswyWiAhaWJ-47" value="" style="rounded=1;whiteSpace=wrap;html=1;" parent="1" vertex="1">
          <mxGeometry x="1395" y="110" width="150" height="10" as="geometry" />
        </mxCell>
        <mxCell id="s3hDOaSbLEswyWiAhaWJ-48" value="Cargar Trabajador" style="text;html=1;align=center;verticalAlign=middle;whiteSpace=wrap;rounded=0;" parent="1" vertex="1">
          <mxGeometry x="1416.25" y="100" width="107.5" height="30" as="geometry" />
        </mxCell>
        <mxCell id="s3hDOaSbLEswyWiAhaWJ-61" value="" style="rounded=0;whiteSpace=wrap;html=1;movable=1;resizable=1;rotatable=1;deletable=1;editable=1;locked=0;connectable=1;" parent="1" vertex="1">
          <mxGeometry x="20" y="470" width="490" height="280" as="geometry" />
        </mxCell>
        <mxCell id="s3hDOaSbLEswyWiAhaWJ-62" value="" style="rounded=0;whiteSpace=wrap;html=1;" parent="1" vertex="1">
          <mxGeometry x="20" y="470" width="110" height="280" as="geometry" />
        </mxCell>
        <mxCell id="s3hDOaSbLEswyWiAhaWJ-63" value="" style="rounded=0;whiteSpace=wrap;html=1;" parent="1" vertex="1">
          <mxGeometry x="20" y="569" width="110" height="30" as="geometry" />
        </mxCell>
        <mxCell id="s3hDOaSbLEswyWiAhaWJ-64" value="Clientes" style="text;html=1;align=center;verticalAlign=middle;whiteSpace=wrap;rounded=0;" parent="1" vertex="1">
          <mxGeometry x="45" y="569" width="60" height="30" as="geometry" />
        </mxCell>
        <mxCell id="s3hDOaSbLEswyWiAhaWJ-65" value="" style="rounded=0;whiteSpace=wrap;html=1;" parent="1" vertex="1">
          <mxGeometry x="20" y="599" width="110" height="30" as="geometry" />
        </mxCell>
        <mxCell id="s3hDOaSbLEswyWiAhaWJ-66" value="Trabajadores" style="text;html=1;align=center;verticalAlign=middle;whiteSpace=wrap;rounded=0;" parent="1" vertex="1">
          <mxGeometry x="45" y="599" width="60" height="30" as="geometry" />
        </mxCell>
        <mxCell id="s3hDOaSbLEswyWiAhaWJ-67" value="" style="rounded=0;whiteSpace=wrap;html=1;fillColor=#6a00ff;fontColor=#ffffff;strokeColor=#3700CC;" parent="1" vertex="1">
          <mxGeometry x="20" y="629" width="110" height="30" as="geometry" />
        </mxCell>
        <mxCell id="s3hDOaSbLEswyWiAhaWJ-68" value="Servicios" style="text;html=1;align=center;verticalAlign=middle;whiteSpace=wrap;rounded=0;" parent="1" vertex="1">
          <mxGeometry x="45" y="629" width="60" height="30" as="geometry" />
        </mxCell>
        <mxCell id="s3hDOaSbLEswyWiAhaWJ-69" value="" style="rounded=0;whiteSpace=wrap;html=1;" parent="1" vertex="1">
          <mxGeometry x="20" y="659" width="110" height="30" as="geometry" />
        </mxCell>
        <mxCell id="s3hDOaSbLEswyWiAhaWJ-70" value="Historial" style="text;html=1;align=center;verticalAlign=middle;whiteSpace=wrap;rounded=0;" parent="1" vertex="1">
          <mxGeometry x="45" y="659" width="60" height="30" as="geometry" />
        </mxCell>
        <mxCell id="s3hDOaSbLEswyWiAhaWJ-71" value="Boton de Inicio" style="text;html=1;align=center;verticalAlign=middle;whiteSpace=wrap;rounded=0;" parent="1" vertex="1">
          <mxGeometry x="45" y="490" width="60" height="30" as="geometry" />
        </mxCell>
        <mxCell id="s3hDOaSbLEswyWiAhaWJ-72" value="Apagar app" style="text;html=1;align=center;verticalAlign=middle;whiteSpace=wrap;rounded=0;" parent="1" vertex="1">
          <mxGeometry x="45" y="700" width="60" height="30" as="geometry" />
        </mxCell>
        <mxCell id="s3hDOaSbLEswyWiAhaWJ-73" value="" style="rounded=0;whiteSpace=wrap;html=1;" parent="1" vertex="1">
          <mxGeometry x="20" y="539" width="110" height="30" as="geometry" />
        </mxCell>
        <mxCell id="s3hDOaSbLEswyWiAhaWJ-74" value="Laburito" style="text;html=1;align=center;verticalAlign=middle;whiteSpace=wrap;rounded=0;" parent="1" vertex="1">
          <mxGeometry x="45" y="539" width="60" height="30" as="geometry" />
        </mxCell>
        <mxCell id="s3hDOaSbLEswyWiAhaWJ-75" value="Cargar o Modificar servicio" style="rounded=1;whiteSpace=wrap;html=1;" parent="1" vertex="1">
          <mxGeometry x="206" y="490" width="200" height="20" as="geometry" />
        </mxCell>
        <mxCell id="s3hDOaSbLEswyWiAhaWJ-88" value="" style="shape=table;startSize=0;container=1;collapsible=0;childLayout=tableLayout;fontSize=16;" parent="1" vertex="1">
          <mxGeometry x="216" y="583.5" width="180" height="90" as="geometry" />
        </mxCell>
        <mxCell id="s3hDOaSbLEswyWiAhaWJ-89" value="" style="shape=tableRow;horizontal=0;startSize=0;swimlaneHead=0;swimlaneBody=0;strokeColor=inherit;top=0;left=0;bottom=0;right=0;collapsible=0;dropTarget=0;fillColor=none;points=[[0,0.5],[1,0.5]];portConstraint=eastwest;fontSize=16;" parent="s3hDOaSbLEswyWiAhaWJ-88" vertex="1">
          <mxGeometry width="180" height="45" as="geometry" />
        </mxCell>
        <mxCell id="s3hDOaSbLEswyWiAhaWJ-90" value="Nombre" style="shape=partialRectangle;html=1;whiteSpace=wrap;connectable=0;strokeColor=inherit;overflow=hidden;fillColor=none;top=0;left=0;bottom=0;right=0;pointerEvents=1;fontSize=16;" parent="s3hDOaSbLEswyWiAhaWJ-89" vertex="1">
          <mxGeometry width="60" height="45" as="geometry">
            <mxRectangle width="60" height="45" as="alternateBounds" />
          </mxGeometry>
        </mxCell>
        <mxCell id="s3hDOaSbLEswyWiAhaWJ-91" value="Precio" style="shape=partialRectangle;html=1;whiteSpace=wrap;connectable=0;strokeColor=inherit;overflow=hidden;fillColor=none;top=0;left=0;bottom=0;right=0;pointerEvents=1;fontSize=16;" parent="s3hDOaSbLEswyWiAhaWJ-89" vertex="1">
          <mxGeometry x="60" width="48" height="45" as="geometry">
            <mxRectangle width="48" height="45" as="alternateBounds" />
          </mxGeometry>
        </mxCell>
        <mxCell id="s3hDOaSbLEswyWiAhaWJ-92" value="" style="shape=partialRectangle;html=1;whiteSpace=wrap;connectable=0;strokeColor=inherit;overflow=hidden;fillColor=none;top=0;left=0;bottom=0;right=0;pointerEvents=1;fontSize=16;" parent="s3hDOaSbLEswyWiAhaWJ-89" vertex="1">
          <mxGeometry x="108" width="72" height="45" as="geometry">
            <mxRectangle width="72" height="45" as="alternateBounds" />
          </mxGeometry>
        </mxCell>
        <mxCell id="s3hDOaSbLEswyWiAhaWJ-93" value="" style="shape=tableRow;horizontal=0;startSize=0;swimlaneHead=0;swimlaneBody=0;strokeColor=inherit;top=0;left=0;bottom=0;right=0;collapsible=0;dropTarget=0;fillColor=none;points=[[0,0.5],[1,0.5]];portConstraint=eastwest;fontSize=16;" parent="s3hDOaSbLEswyWiAhaWJ-88" vertex="1">
          <mxGeometry y="45" width="180" height="45" as="geometry" />
        </mxCell>
        <mxCell id="s3hDOaSbLEswyWiAhaWJ-94" value="" style="shape=partialRectangle;html=1;whiteSpace=wrap;connectable=0;strokeColor=inherit;overflow=hidden;fillColor=none;top=0;left=0;bottom=0;right=0;pointerEvents=1;fontSize=16;" parent="s3hDOaSbLEswyWiAhaWJ-93" vertex="1">
          <mxGeometry width="60" height="45" as="geometry">
            <mxRectangle width="60" height="45" as="alternateBounds" />
          </mxGeometry>
        </mxCell>
        <mxCell id="s3hDOaSbLEswyWiAhaWJ-95" value="" style="shape=partialRectangle;html=1;whiteSpace=wrap;connectable=0;strokeColor=inherit;overflow=hidden;fillColor=none;top=0;left=0;bottom=0;right=0;pointerEvents=1;fontSize=16;" parent="s3hDOaSbLEswyWiAhaWJ-93" vertex="1">
          <mxGeometry x="60" width="48" height="45" as="geometry">
            <mxRectangle width="48" height="45" as="alternateBounds" />
          </mxGeometry>
        </mxCell>
        <mxCell id="s3hDOaSbLEswyWiAhaWJ-96" value="Modificar / Eliminar" style="shape=partialRectangle;html=1;whiteSpace=wrap;connectable=0;strokeColor=inherit;overflow=hidden;fillColor=none;top=0;left=0;bottom=0;right=0;pointerEvents=1;fontSize=16;" parent="s3hDOaSbLEswyWiAhaWJ-93" vertex="1">
          <mxGeometry x="108" width="72" height="45" as="geometry">
            <mxRectangle width="72" height="45" as="alternateBounds" />
          </mxGeometry>
        </mxCell>
        <mxCell id="s3hDOaSbLEswyWiAhaWJ-104" value="" style="rounded=0;whiteSpace=wrap;html=1;movable=0;resizable=0;rotatable=0;deletable=0;editable=0;locked=1;connectable=0;" parent="1" vertex="1">
          <mxGeometry x="1790" y="90" width="490" height="280" as="geometry" />
        </mxCell>
        <mxCell id="s3hDOaSbLEswyWiAhaWJ-105" value="" style="rounded=0;whiteSpace=wrap;html=1;" parent="1" vertex="1">
          <mxGeometry x="1790" y="90" width="110" height="280" as="geometry" />
        </mxCell>
        <mxCell id="s3hDOaSbLEswyWiAhaWJ-106" value="" style="rounded=0;whiteSpace=wrap;html=1;" parent="1" vertex="1">
          <mxGeometry x="1790" y="189" width="110" height="30" as="geometry" />
        </mxCell>
        <mxCell id="s3hDOaSbLEswyWiAhaWJ-107" value="Clientes" style="text;html=1;align=center;verticalAlign=middle;whiteSpace=wrap;rounded=0;" parent="1" vertex="1">
          <mxGeometry x="1815" y="189" width="60" height="30" as="geometry" />
        </mxCell>
        <mxCell id="s3hDOaSbLEswyWiAhaWJ-108" value="" style="rounded=0;whiteSpace=wrap;html=1;" parent="1" vertex="1">
          <mxGeometry x="1790" y="219" width="110" height="30" as="geometry" />
        </mxCell>
        <mxCell id="s3hDOaSbLEswyWiAhaWJ-109" value="Trabajadores" style="text;html=1;align=center;verticalAlign=middle;whiteSpace=wrap;rounded=0;" parent="1" vertex="1">
          <mxGeometry x="1815" y="219" width="60" height="30" as="geometry" />
        </mxCell>
        <mxCell id="s3hDOaSbLEswyWiAhaWJ-110" value="" style="rounded=0;whiteSpace=wrap;html=1;" parent="1" vertex="1">
          <mxGeometry x="1790" y="249" width="110" height="30" as="geometry" />
        </mxCell>
        <mxCell id="s3hDOaSbLEswyWiAhaWJ-111" value="Servicios" style="text;html=1;align=center;verticalAlign=middle;whiteSpace=wrap;rounded=0;" parent="1" vertex="1">
          <mxGeometry x="1815" y="249" width="60" height="30" as="geometry" />
        </mxCell>
        <mxCell id="s3hDOaSbLEswyWiAhaWJ-112" value="" style="rounded=0;whiteSpace=wrap;html=1;fillColor=#6a00ff;fontColor=#ffffff;strokeColor=#3700CC;" parent="1" vertex="1">
          <mxGeometry x="1790" y="279" width="110" height="30" as="geometry" />
        </mxCell>
        <mxCell id="s3hDOaSbLEswyWiAhaWJ-113" value="Historial" style="text;html=1;align=center;verticalAlign=middle;whiteSpace=wrap;rounded=0;" parent="1" vertex="1">
          <mxGeometry x="1815" y="279" width="60" height="30" as="geometry" />
        </mxCell>
        <mxCell id="s3hDOaSbLEswyWiAhaWJ-114" value="Boton de Inicio" style="text;html=1;align=center;verticalAlign=middle;whiteSpace=wrap;rounded=0;" parent="1" vertex="1">
          <mxGeometry x="1815" y="110" width="60" height="30" as="geometry" />
        </mxCell>
        <mxCell id="s3hDOaSbLEswyWiAhaWJ-115" value="Apagar app" style="text;html=1;align=center;verticalAlign=middle;whiteSpace=wrap;rounded=0;" parent="1" vertex="1">
          <mxGeometry x="1815" y="320" width="60" height="30" as="geometry" />
        </mxCell>
        <mxCell id="s3hDOaSbLEswyWiAhaWJ-116" value="" style="rounded=0;whiteSpace=wrap;html=1;" parent="1" vertex="1">
          <mxGeometry x="1790" y="159" width="110" height="30" as="geometry" />
        </mxCell>
        <mxCell id="s3hDOaSbLEswyWiAhaWJ-117" value="Laburito" style="text;html=1;align=center;verticalAlign=middle;whiteSpace=wrap;rounded=0;" parent="1" vertex="1">
          <mxGeometry x="1815" y="159" width="60" height="30" as="geometry" />
        </mxCell>
        <mxCell id="s3hDOaSbLEswyWiAhaWJ-118" value="Historieta" style="rounded=1;whiteSpace=wrap;html=1;" parent="1" vertex="1">
          <mxGeometry x="1976" y="110" width="200" height="20" as="geometry" />
        </mxCell>
        <mxCell id="s3hDOaSbLEswyWiAhaWJ-130" value="filtro de busqueda" style="rounded=1;whiteSpace=wrap;html=1;" parent="1" vertex="1">
          <mxGeometry x="165" y="533" width="130" height="19.5" as="geometry" />
        </mxCell>
        <mxCell id="s3hDOaSbLEswyWiAhaWJ-131" value="Cargar Nuevo" style="rounded=1;whiteSpace=wrap;html=1;" parent="1" vertex="1">
          <mxGeometry x="330" y="533" width="130" height="19.5" as="geometry" />
        </mxCell>
        <mxCell id="s3hDOaSbLEswyWiAhaWJ-160" value="Cargar Servicio" style="rounded=1;whiteSpace=wrap;html=1;" parent="1" vertex="1">
          <mxGeometry x="145" y="780" width="240" height="30" as="geometry" />
        </mxCell>
        <mxCell id="s3hDOaSbLEswyWiAhaWJ-162" value="" style="rounded=0;whiteSpace=wrap;html=1;movable=1;resizable=1;rotatable=1;deletable=1;editable=1;locked=0;connectable=1;" parent="1" vertex="1">
          <mxGeometry x="155" y="830" width="220" height="280" as="geometry" />
        </mxCell>
        <mxCell id="s3hDOaSbLEswyWiAhaWJ-188" value="Nombre producto" style="text;html=1;align=center;verticalAlign=middle;whiteSpace=wrap;rounded=0;" parent="1" vertex="1">
          <mxGeometry x="175" y="900" width="60" height="30" as="geometry" />
        </mxCell>
        <mxCell id="s3hDOaSbLEswyWiAhaWJ-189" value="Precio" style="text;html=1;align=center;verticalAlign=middle;whiteSpace=wrap;rounded=0;" parent="1" vertex="1">
          <mxGeometry x="175" y="980" width="60" height="30" as="geometry" />
        </mxCell>
        <mxCell id="s3hDOaSbLEswyWiAhaWJ-190" value="Botón Cargar" style="rounded=1;whiteSpace=wrap;html=1;" parent="1" vertex="1">
          <mxGeometry x="175" y="1070" width="74" height="20" as="geometry" />
        </mxCell>
        <mxCell id="s3hDOaSbLEswyWiAhaWJ-192" value="Cancelar" style="rounded=1;whiteSpace=wrap;html=1;" parent="1" vertex="1">
          <mxGeometry x="280" y="1070" width="74" height="20" as="geometry" />
        </mxCell>
        <mxCell id="s3hDOaSbLEswyWiAhaWJ-193" value="Campo de texto" style="rounded=1;whiteSpace=wrap;html=1;" parent="1" vertex="1">
          <mxGeometry x="259.5" y="907.5" width="93" height="15" as="geometry" />
        </mxCell>
        <mxCell id="s3hDOaSbLEswyWiAhaWJ-194" value="Campo de texto" style="rounded=1;whiteSpace=wrap;html=1;" parent="1" vertex="1">
          <mxGeometry x="259.5" y="987.5" width="93" height="15" as="geometry" />
        </mxCell>
        <mxCell id="s3hDOaSbLEswyWiAhaWJ-195" value="Cargar Cliente" style="rounded=1;whiteSpace=wrap;html=1;" parent="1" vertex="1">
          <mxGeometry x="735" y="420" width="240" height="30" as="geometry" />
        </mxCell>
        <mxCell id="s3hDOaSbLEswyWiAhaWJ-196" value="" style="rounded=0;whiteSpace=wrap;html=1;movable=1;resizable=1;rotatable=1;deletable=1;editable=1;locked=0;connectable=1;" parent="1" vertex="1">
          <mxGeometry x="745" y="470" width="220" height="280" as="geometry" />
        </mxCell>
        <mxCell id="s3hDOaSbLEswyWiAhaWJ-199" value="Botón Cargar" style="rounded=1;whiteSpace=wrap;html=1;" parent="1" vertex="1">
          <mxGeometry x="765" y="710" width="74" height="20" as="geometry" />
        </mxCell>
        <mxCell id="s3hDOaSbLEswyWiAhaWJ-200" value="Cancelar" style="rounded=1;whiteSpace=wrap;html=1;" parent="1" vertex="1">
          <mxGeometry x="870" y="710" width="74" height="20" as="geometry" />
        </mxCell>
        <mxCell id="7DQiAw3LRBfs8X1S_fTX-5" value="Nombre:" style="text;html=1;align=center;verticalAlign=middle;whiteSpace=wrap;rounded=0;" parent="1" vertex="1">
          <mxGeometry x="770" y="538" width="50" height="30" as="geometry" />
        </mxCell>
        <mxCell id="7DQiAw3LRBfs8X1S_fTX-6" value="Apellido:" style="text;html=1;align=center;verticalAlign=middle;whiteSpace=wrap;rounded=0;" parent="1" vertex="1">
          <mxGeometry x="770" y="569" width="50" height="30" as="geometry" />
        </mxCell>
        <mxCell id="7DQiAw3LRBfs8X1S_fTX-7" value="DNI:" style="text;html=1;align=center;verticalAlign=middle;whiteSpace=wrap;rounded=0;" parent="1" vertex="1">
          <mxGeometry x="790" y="599" width="30" height="30" as="geometry" />
        </mxCell>
        <mxCell id="7DQiAw3LRBfs8X1S_fTX-8" value="Telefono:" style="text;html=1;align=center;verticalAlign=middle;whiteSpace=wrap;rounded=0;" parent="1" vertex="1">
          <mxGeometry x="770" y="629" width="50" height="30" as="geometry" />
        </mxCell>
        <mxCell id="s3hDOaSbLEswyWiAhaWJ-1" value="Campo de Texto" style="rounded=1;whiteSpace=wrap;html=1;" parent="1" vertex="1">
          <mxGeometry x="840" y="543" width="100" height="20" as="geometry" />
        </mxCell>
        <mxCell id="s3hDOaSbLEswyWiAhaWJ-2" value="Campo de Texto" style="rounded=1;whiteSpace=wrap;html=1;" parent="1" vertex="1">
          <mxGeometry x="840" y="574" width="100" height="20" as="geometry" />
        </mxCell>
        <mxCell id="s3hDOaSbLEswyWiAhaWJ-3" value="Campo de Texto" style="rounded=1;whiteSpace=wrap;html=1;" parent="1" vertex="1">
          <mxGeometry x="840" y="633" width="100" height="20" as="geometry" />
        </mxCell>
        <mxCell id="s3hDOaSbLEswyWiAhaWJ-4" value="Campo de Texto" style="rounded=1;whiteSpace=wrap;html=1;" parent="1" vertex="1">
          <mxGeometry x="840" y="604" width="100" height="20" as="geometry" />
        </mxCell>
        <mxCell id="s3hDOaSbLEswyWiAhaWJ-203" value="filtro de busqueda" style="rounded=1;whiteSpace=wrap;html=1;" parent="1" vertex="1">
          <mxGeometry x="720" y="160.5" width="130" height="19.5" as="geometry" />
        </mxCell>
        <mxCell id="s3hDOaSbLEswyWiAhaWJ-208" value="" style="shape=table;startSize=0;container=1;collapsible=0;childLayout=tableLayout;fontSize=16;" parent="1" vertex="1">
          <mxGeometry x="720" y="200" width="324" height="90" as="geometry" />
        </mxCell>
        <mxCell id="s3hDOaSbLEswyWiAhaWJ-209" value="" style="shape=tableRow;horizontal=0;startSize=0;swimlaneHead=0;swimlaneBody=0;strokeColor=inherit;top=0;left=0;bottom=0;right=0;collapsible=0;dropTarget=0;fillColor=none;points=[[0,0.5],[1,0.5]];portConstraint=eastwest;fontSize=16;" parent="s3hDOaSbLEswyWiAhaWJ-208" vertex="1">
          <mxGeometry width="324" height="45" as="geometry" />
        </mxCell>
        <mxCell id="s3hDOaSbLEswyWiAhaWJ-210" value="Nombre" style="shape=partialRectangle;html=1;whiteSpace=wrap;connectable=0;strokeColor=inherit;overflow=hidden;fillColor=none;top=0;left=0;bottom=0;right=0;pointerEvents=1;fontSize=16;" parent="s3hDOaSbLEswyWiAhaWJ-209" vertex="1">
          <mxGeometry width="60" height="45" as="geometry">
            <mxRectangle width="60" height="45" as="alternateBounds" />
          </mxGeometry>
        </mxCell>
        <mxCell id="s3hDOaSbLEswyWiAhaWJ-211" value="Apellido" style="shape=partialRectangle;html=1;whiteSpace=wrap;connectable=0;strokeColor=inherit;overflow=hidden;fillColor=none;top=0;left=0;bottom=0;right=0;pointerEvents=1;fontSize=16;" parent="s3hDOaSbLEswyWiAhaWJ-209" vertex="1">
          <mxGeometry x="60" width="65" height="45" as="geometry">
            <mxRectangle width="65" height="45" as="alternateBounds" />
          </mxGeometry>
        </mxCell>
        <mxCell id="s3hDOaSbLEswyWiAhaWJ-212" value="DNI" style="shape=partialRectangle;html=1;whiteSpace=wrap;connectable=0;strokeColor=inherit;overflow=hidden;fillColor=none;top=0;left=0;bottom=0;right=0;pointerEvents=1;fontSize=16;" parent="s3hDOaSbLEswyWiAhaWJ-209" vertex="1">
          <mxGeometry x="125" width="55" height="45" as="geometry">
            <mxRectangle width="55" height="45" as="alternateBounds" />
          </mxGeometry>
        </mxCell>
        <mxCell id="s3hDOaSbLEswyWiAhaWJ-217" value="Telefono" style="shape=partialRectangle;html=1;whiteSpace=wrap;connectable=0;strokeColor=inherit;overflow=hidden;fillColor=none;top=0;left=0;bottom=0;right=0;pointerEvents=1;fontSize=16;" parent="s3hDOaSbLEswyWiAhaWJ-209" vertex="1">
          <mxGeometry x="180" width="72" height="45" as="geometry">
            <mxRectangle width="72" height="45" as="alternateBounds" />
          </mxGeometry>
        </mxCell>
        <mxCell id="s3hDOaSbLEswyWiAhaWJ-219" style="shape=partialRectangle;html=1;whiteSpace=wrap;connectable=0;strokeColor=inherit;overflow=hidden;fillColor=none;top=0;left=0;bottom=0;right=0;pointerEvents=1;fontSize=16;" parent="s3hDOaSbLEswyWiAhaWJ-209" vertex="1">
          <mxGeometry x="252" width="72" height="45" as="geometry">
            <mxRectangle width="72" height="45" as="alternateBounds" />
          </mxGeometry>
        </mxCell>
        <mxCell id="s3hDOaSbLEswyWiAhaWJ-213" value="" style="shape=tableRow;horizontal=0;startSize=0;swimlaneHead=0;swimlaneBody=0;strokeColor=inherit;top=0;left=0;bottom=0;right=0;collapsible=0;dropTarget=0;fillColor=none;points=[[0,0.5],[1,0.5]];portConstraint=eastwest;fontSize=16;" parent="s3hDOaSbLEswyWiAhaWJ-208" vertex="1">
          <mxGeometry y="45" width="324" height="45" as="geometry" />
        </mxCell>
        <mxCell id="s3hDOaSbLEswyWiAhaWJ-214" value="" style="shape=partialRectangle;html=1;whiteSpace=wrap;connectable=0;strokeColor=inherit;overflow=hidden;fillColor=none;top=0;left=0;bottom=0;right=0;pointerEvents=1;fontSize=16;" parent="s3hDOaSbLEswyWiAhaWJ-213" vertex="1">
          <mxGeometry width="60" height="45" as="geometry">
            <mxRectangle width="60" height="45" as="alternateBounds" />
          </mxGeometry>
        </mxCell>
        <mxCell id="s3hDOaSbLEswyWiAhaWJ-215" value="" style="shape=partialRectangle;html=1;whiteSpace=wrap;connectable=0;strokeColor=inherit;overflow=hidden;fillColor=none;top=0;left=0;bottom=0;right=0;pointerEvents=1;fontSize=16;" parent="s3hDOaSbLEswyWiAhaWJ-213" vertex="1">
          <mxGeometry x="60" width="65" height="45" as="geometry">
            <mxRectangle width="65" height="45" as="alternateBounds" />
          </mxGeometry>
        </mxCell>
        <mxCell id="s3hDOaSbLEswyWiAhaWJ-216" value="" style="shape=partialRectangle;html=1;whiteSpace=wrap;connectable=0;strokeColor=inherit;overflow=hidden;fillColor=none;top=0;left=0;bottom=0;right=0;pointerEvents=1;fontSize=16;" parent="s3hDOaSbLEswyWiAhaWJ-213" vertex="1">
          <mxGeometry x="125" width="55" height="45" as="geometry">
            <mxRectangle width="55" height="45" as="alternateBounds" />
          </mxGeometry>
        </mxCell>
        <mxCell id="s3hDOaSbLEswyWiAhaWJ-218" style="shape=partialRectangle;html=1;whiteSpace=wrap;connectable=0;strokeColor=inherit;overflow=hidden;fillColor=none;top=0;left=0;bottom=0;right=0;pointerEvents=1;fontSize=16;" parent="s3hDOaSbLEswyWiAhaWJ-213" vertex="1">
          <mxGeometry x="180" width="72" height="45" as="geometry">
            <mxRectangle width="72" height="45" as="alternateBounds" />
          </mxGeometry>
        </mxCell>
        <mxCell id="s3hDOaSbLEswyWiAhaWJ-220" value="Modificar / Eliminar" style="shape=partialRectangle;html=1;whiteSpace=wrap;connectable=0;strokeColor=inherit;overflow=hidden;fillColor=none;top=0;left=0;bottom=0;right=0;pointerEvents=1;fontSize=16;" parent="s3hDOaSbLEswyWiAhaWJ-213" vertex="1">
          <mxGeometry x="252" width="72" height="45" as="geometry">
            <mxRectangle width="72" height="45" as="alternateBounds" />
          </mxGeometry>
        </mxCell>
        <mxCell id="s3hDOaSbLEswyWiAhaWJ-234" value="Cargar Trabajador" style="rounded=1;whiteSpace=wrap;html=1;" parent="1" vertex="1">
          <mxGeometry x="1350" y="419" width="240" height="30" as="geometry" />
        </mxCell>
        <mxCell id="s3hDOaSbLEswyWiAhaWJ-235" value="" style="rounded=0;whiteSpace=wrap;html=1;movable=1;resizable=1;rotatable=1;deletable=1;editable=1;locked=0;connectable=1;" parent="1" vertex="1">
          <mxGeometry x="1360" y="469" width="220" height="280" as="geometry" />
        </mxCell>
        <mxCell id="s3hDOaSbLEswyWiAhaWJ-236" value="Botón Cargar" style="rounded=1;whiteSpace=wrap;html=1;" parent="1" vertex="1">
          <mxGeometry x="1380" y="709" width="74" height="20" as="geometry" />
        </mxCell>
        <mxCell id="s3hDOaSbLEswyWiAhaWJ-237" value="Cancelar" style="rounded=1;whiteSpace=wrap;html=1;" parent="1" vertex="1">
          <mxGeometry x="1485" y="709" width="74" height="20" as="geometry" />
        </mxCell>
        <mxCell id="s3hDOaSbLEswyWiAhaWJ-238" value="Nombre:" style="text;html=1;align=center;verticalAlign=middle;whiteSpace=wrap;rounded=0;" parent="1" vertex="1">
          <mxGeometry x="1385" y="537" width="50" height="30" as="geometry" />
        </mxCell>
        <mxCell id="s3hDOaSbLEswyWiAhaWJ-239" value="Apellido:" style="text;html=1;align=center;verticalAlign=middle;whiteSpace=wrap;rounded=0;" parent="1" vertex="1">
          <mxGeometry x="1385" y="568" width="50" height="30" as="geometry" />
        </mxCell>
        <mxCell id="s3hDOaSbLEswyWiAhaWJ-240" value="DNI:" style="text;html=1;align=center;verticalAlign=middle;whiteSpace=wrap;rounded=0;" parent="1" vertex="1">
          <mxGeometry x="1405" y="598" width="30" height="30" as="geometry" />
        </mxCell>
        <mxCell id="s3hDOaSbLEswyWiAhaWJ-241" value="Telefono:" style="text;html=1;align=center;verticalAlign=middle;whiteSpace=wrap;rounded=0;" parent="1" vertex="1">
          <mxGeometry x="1385" y="628" width="50" height="30" as="geometry" />
        </mxCell>
        <mxCell id="s3hDOaSbLEswyWiAhaWJ-242" value="Campo de Texto" style="rounded=1;whiteSpace=wrap;html=1;" parent="1" vertex="1">
          <mxGeometry x="1455" y="542" width="100" height="20" as="geometry" />
        </mxCell>
        <mxCell id="s3hDOaSbLEswyWiAhaWJ-243" value="Campo de Texto" style="rounded=1;whiteSpace=wrap;html=1;" parent="1" vertex="1">
          <mxGeometry x="1455" y="573" width="100" height="20" as="geometry" />
        </mxCell>
        <mxCell id="s3hDOaSbLEswyWiAhaWJ-244" value="Campo de Texto" style="rounded=1;whiteSpace=wrap;html=1;" parent="1" vertex="1">
          <mxGeometry x="1455" y="632" width="100" height="20" as="geometry" />
        </mxCell>
        <mxCell id="s3hDOaSbLEswyWiAhaWJ-245" value="Campo de Texto" style="rounded=1;whiteSpace=wrap;html=1;" parent="1" vertex="1">
          <mxGeometry x="1455" y="603" width="100" height="20" as="geometry" />
        </mxCell>
        <mxCell id="s3hDOaSbLEswyWiAhaWJ-246" value="Dirección:" style="text;html=1;align=center;verticalAlign=middle;whiteSpace=wrap;rounded=0;" parent="1" vertex="1">
          <mxGeometry x="1385" y="659" width="50" height="30" as="geometry" />
        </mxCell>
        <mxCell id="s3hDOaSbLEswyWiAhaWJ-247" value="Campo de Texto" style="rounded=1;whiteSpace=wrap;html=1;" parent="1" vertex="1">
          <mxGeometry x="1455" y="663" width="100" height="20" as="geometry" />
        </mxCell>
        <mxCell id="s3hDOaSbLEswyWiAhaWJ-248" value="Botón de carga" style="rounded=1;whiteSpace=wrap;html=1;" parent="1" vertex="1">
          <mxGeometry x="1527" y="165" width="117" height="20" as="geometry" />
        </mxCell>
        <mxCell id="s3hDOaSbLEswyWiAhaWJ-249" value="filtro de busqueda" style="rounded=1;whiteSpace=wrap;html=1;" parent="1" vertex="1">
          <mxGeometry x="1320" y="165.5" width="130" height="19.5" as="geometry" />
        </mxCell>
        <mxCell id="s3hDOaSbLEswyWiAhaWJ-250" value="" style="shape=table;startSize=0;container=1;collapsible=0;childLayout=tableLayout;fontSize=16;" parent="1" vertex="1">
          <mxGeometry x="1320" y="205" width="350" height="90" as="geometry" />
        </mxCell>
        <mxCell id="s3hDOaSbLEswyWiAhaWJ-251" value="" style="shape=tableRow;horizontal=0;startSize=0;swimlaneHead=0;swimlaneBody=0;strokeColor=inherit;top=0;left=0;bottom=0;right=0;collapsible=0;dropTarget=0;fillColor=none;points=[[0,0.5],[1,0.5]];portConstraint=eastwest;fontSize=16;" parent="s3hDOaSbLEswyWiAhaWJ-250" vertex="1">
          <mxGeometry width="350" height="45" as="geometry" />
        </mxCell>
        <mxCell id="s3hDOaSbLEswyWiAhaWJ-252" value="Nombre" style="shape=partialRectangle;html=1;whiteSpace=wrap;connectable=0;strokeColor=inherit;overflow=hidden;fillColor=none;top=0;left=0;bottom=0;right=0;pointerEvents=1;fontSize=16;" parent="s3hDOaSbLEswyWiAhaWJ-251" vertex="1">
          <mxGeometry width="60" height="45" as="geometry">
            <mxRectangle width="60" height="45" as="alternateBounds" />
          </mxGeometry>
        </mxCell>
        <mxCell id="s3hDOaSbLEswyWiAhaWJ-253" value="Apellido" style="shape=partialRectangle;html=1;whiteSpace=wrap;connectable=0;strokeColor=inherit;overflow=hidden;fillColor=none;top=0;left=0;bottom=0;right=0;pointerEvents=1;fontSize=16;" parent="s3hDOaSbLEswyWiAhaWJ-251" vertex="1">
          <mxGeometry x="60" width="50" height="45" as="geometry">
            <mxRectangle width="50" height="45" as="alternateBounds" />
          </mxGeometry>
        </mxCell>
        <mxCell id="s3hDOaSbLEswyWiAhaWJ-254" value="DNI" style="shape=partialRectangle;html=1;whiteSpace=wrap;connectable=0;strokeColor=inherit;overflow=hidden;fillColor=none;top=0;left=0;bottom=0;right=0;pointerEvents=1;fontSize=16;" parent="s3hDOaSbLEswyWiAhaWJ-251" vertex="1">
          <mxGeometry x="110" width="49" height="45" as="geometry">
            <mxRectangle width="49" height="45" as="alternateBounds" />
          </mxGeometry>
        </mxCell>
        <mxCell id="s3hDOaSbLEswyWiAhaWJ-255" value="Telefono" style="shape=partialRectangle;html=1;whiteSpace=wrap;connectable=0;strokeColor=inherit;overflow=hidden;fillColor=none;top=0;left=0;bottom=0;right=0;pointerEvents=1;fontSize=16;" parent="s3hDOaSbLEswyWiAhaWJ-251" vertex="1">
          <mxGeometry x="159" width="64" height="45" as="geometry">
            <mxRectangle width="64" height="45" as="alternateBounds" />
          </mxGeometry>
        </mxCell>
        <mxCell id="s3hDOaSbLEswyWiAhaWJ-256" value="Direccion" style="shape=partialRectangle;html=1;whiteSpace=wrap;connectable=0;strokeColor=inherit;overflow=hidden;fillColor=none;top=0;left=0;bottom=0;right=0;pointerEvents=1;fontSize=16;" parent="s3hDOaSbLEswyWiAhaWJ-251" vertex="1">
          <mxGeometry x="223" width="77" height="45" as="geometry">
            <mxRectangle width="77" height="45" as="alternateBounds" />
          </mxGeometry>
        </mxCell>
        <mxCell id="s3hDOaSbLEswyWiAhaWJ-263" style="shape=partialRectangle;html=1;whiteSpace=wrap;connectable=0;strokeColor=inherit;overflow=hidden;fillColor=none;top=0;left=0;bottom=0;right=0;pointerEvents=1;fontSize=16;" parent="s3hDOaSbLEswyWiAhaWJ-251" vertex="1">
          <mxGeometry x="300" width="50" height="45" as="geometry">
            <mxRectangle width="50" height="45" as="alternateBounds" />
          </mxGeometry>
        </mxCell>
        <mxCell id="s3hDOaSbLEswyWiAhaWJ-257" value="" style="shape=tableRow;horizontal=0;startSize=0;swimlaneHead=0;swimlaneBody=0;strokeColor=inherit;top=0;left=0;bottom=0;right=0;collapsible=0;dropTarget=0;fillColor=none;points=[[0,0.5],[1,0.5]];portConstraint=eastwest;fontSize=16;" parent="s3hDOaSbLEswyWiAhaWJ-250" vertex="1">
          <mxGeometry y="45" width="350" height="45" as="geometry" />
        </mxCell>
        <mxCell id="s3hDOaSbLEswyWiAhaWJ-258" value="" style="shape=partialRectangle;html=1;whiteSpace=wrap;connectable=0;strokeColor=inherit;overflow=hidden;fillColor=none;top=0;left=0;bottom=0;right=0;pointerEvents=1;fontSize=16;" parent="s3hDOaSbLEswyWiAhaWJ-257" vertex="1">
          <mxGeometry width="60" height="45" as="geometry">
            <mxRectangle width="60" height="45" as="alternateBounds" />
          </mxGeometry>
        </mxCell>
        <mxCell id="s3hDOaSbLEswyWiAhaWJ-259" value="" style="shape=partialRectangle;html=1;whiteSpace=wrap;connectable=0;strokeColor=inherit;overflow=hidden;fillColor=none;top=0;left=0;bottom=0;right=0;pointerEvents=1;fontSize=16;" parent="s3hDOaSbLEswyWiAhaWJ-257" vertex="1">
          <mxGeometry x="60" width="50" height="45" as="geometry">
            <mxRectangle width="50" height="45" as="alternateBounds" />
          </mxGeometry>
        </mxCell>
        <mxCell id="s3hDOaSbLEswyWiAhaWJ-260" value="" style="shape=partialRectangle;html=1;whiteSpace=wrap;connectable=0;strokeColor=inherit;overflow=hidden;fillColor=none;top=0;left=0;bottom=0;right=0;pointerEvents=1;fontSize=16;" parent="s3hDOaSbLEswyWiAhaWJ-257" vertex="1">
          <mxGeometry x="110" width="49" height="45" as="geometry">
            <mxRectangle width="49" height="45" as="alternateBounds" />
          </mxGeometry>
        </mxCell>
        <mxCell id="s3hDOaSbLEswyWiAhaWJ-261" style="shape=partialRectangle;html=1;whiteSpace=wrap;connectable=0;strokeColor=inherit;overflow=hidden;fillColor=none;top=0;left=0;bottom=0;right=0;pointerEvents=1;fontSize=16;" parent="s3hDOaSbLEswyWiAhaWJ-257" vertex="1">
          <mxGeometry x="159" width="64" height="45" as="geometry">
            <mxRectangle width="64" height="45" as="alternateBounds" />
          </mxGeometry>
        </mxCell>
        <mxCell id="s3hDOaSbLEswyWiAhaWJ-262" value="" style="shape=partialRectangle;html=1;whiteSpace=wrap;connectable=0;strokeColor=inherit;overflow=hidden;fillColor=none;top=0;left=0;bottom=0;right=0;pointerEvents=1;fontSize=16;" parent="s3hDOaSbLEswyWiAhaWJ-257" vertex="1">
          <mxGeometry x="223" width="77" height="45" as="geometry">
            <mxRectangle width="77" height="45" as="alternateBounds" />
          </mxGeometry>
        </mxCell>
        <mxCell id="s3hDOaSbLEswyWiAhaWJ-264" value="&lt;font style=&quot;font-size: 10px;&quot;&gt;Modificar / Eliminar&lt;/font&gt;" style="shape=partialRectangle;html=1;whiteSpace=wrap;connectable=0;strokeColor=inherit;overflow=hidden;fillColor=none;top=0;left=0;bottom=0;right=0;pointerEvents=1;fontSize=16;" parent="s3hDOaSbLEswyWiAhaWJ-257" vertex="1">
          <mxGeometry x="300" width="50" height="45" as="geometry">
            <mxRectangle width="50" height="45" as="alternateBounds" />
          </mxGeometry>
        </mxCell>
        <mxCell id="s3hDOaSbLEswyWiAhaWJ-265" value="" style="rounded=0;whiteSpace=wrap;html=1;movable=1;resizable=1;rotatable=1;deletable=1;editable=1;locked=0;connectable=1;" parent="1" vertex="1">
          <mxGeometry x="1790" y="469" width="490" height="280" as="geometry" />
        </mxCell>
        <mxCell id="s3hDOaSbLEswyWiAhaWJ-266" value="" style="rounded=0;whiteSpace=wrap;html=1;" parent="1" vertex="1">
          <mxGeometry x="1790" y="469" width="110" height="280" as="geometry" />
        </mxCell>
        <mxCell id="s3hDOaSbLEswyWiAhaWJ-267" value="" style="rounded=0;whiteSpace=wrap;html=1;" parent="1" vertex="1">
          <mxGeometry x="1790" y="568" width="110" height="30" as="geometry" />
        </mxCell>
        <mxCell id="s3hDOaSbLEswyWiAhaWJ-268" value="Clientes" style="text;html=1;align=center;verticalAlign=middle;whiteSpace=wrap;rounded=0;" parent="1" vertex="1">
          <mxGeometry x="1815" y="568" width="60" height="30" as="geometry" />
        </mxCell>
        <mxCell id="s3hDOaSbLEswyWiAhaWJ-269" value="" style="rounded=0;whiteSpace=wrap;html=1;" parent="1" vertex="1">
          <mxGeometry x="1790" y="598" width="110" height="30" as="geometry" />
        </mxCell>
        <mxCell id="s3hDOaSbLEswyWiAhaWJ-270" value="Trabajadores" style="text;html=1;align=center;verticalAlign=middle;whiteSpace=wrap;rounded=0;" parent="1" vertex="1">
          <mxGeometry x="1815" y="598" width="60" height="30" as="geometry" />
        </mxCell>
        <mxCell id="s3hDOaSbLEswyWiAhaWJ-271" value="" style="rounded=0;whiteSpace=wrap;html=1;" parent="1" vertex="1">
          <mxGeometry x="1790" y="628" width="110" height="30" as="geometry" />
        </mxCell>
        <mxCell id="s3hDOaSbLEswyWiAhaWJ-272" value="Servicios" style="text;html=1;align=center;verticalAlign=middle;whiteSpace=wrap;rounded=0;" parent="1" vertex="1">
          <mxGeometry x="1815" y="628" width="60" height="30" as="geometry" />
        </mxCell>
        <mxCell id="s3hDOaSbLEswyWiAhaWJ-273" value="" style="rounded=0;whiteSpace=wrap;html=1;" parent="1" vertex="1">
          <mxGeometry x="1790" y="658" width="110" height="30" as="geometry" />
        </mxCell>
        <mxCell id="s3hDOaSbLEswyWiAhaWJ-274" value="Historial" style="text;html=1;align=center;verticalAlign=middle;whiteSpace=wrap;rounded=0;" parent="1" vertex="1">
          <mxGeometry x="1815" y="658" width="60" height="30" as="geometry" />
        </mxCell>
        <mxCell id="s3hDOaSbLEswyWiAhaWJ-275" value="Boton de Inicio" style="text;html=1;align=center;verticalAlign=middle;whiteSpace=wrap;rounded=0;" parent="1" vertex="1">
          <mxGeometry x="1815" y="489" width="60" height="30" as="geometry" />
        </mxCell>
        <mxCell id="s3hDOaSbLEswyWiAhaWJ-276" value="Apagar app" style="text;html=1;align=center;verticalAlign=middle;whiteSpace=wrap;rounded=0;" parent="1" vertex="1">
          <mxGeometry x="1815" y="699" width="60" height="30" as="geometry" />
        </mxCell>
        <mxCell id="s3hDOaSbLEswyWiAhaWJ-277" value="" style="rounded=0;whiteSpace=wrap;html=1;" parent="1" vertex="1">
          <mxGeometry x="1790" y="538" width="110" height="30" as="geometry" />
        </mxCell>
        <mxCell id="s3hDOaSbLEswyWiAhaWJ-278" value="Laburito" style="text;html=1;align=center;verticalAlign=middle;whiteSpace=wrap;rounded=0;" parent="1" vertex="1">
          <mxGeometry x="1815" y="538" width="60" height="30" as="geometry" />
        </mxCell>
        <mxCell id="s3hDOaSbLEswyWiAhaWJ-279" value="Cargar o Modificar servicio" style="rounded=1;whiteSpace=wrap;html=1;" parent="1" vertex="1">
          <mxGeometry x="1976" y="479" width="200" height="20" as="geometry" />
        </mxCell>
        <mxCell id="s3hDOaSbLEswyWiAhaWJ-280" value="Nombre:" style="text;html=1;align=center;verticalAlign=middle;whiteSpace=wrap;rounded=0;" parent="1" vertex="1">
          <mxGeometry x="1990" y="526.5" width="50" height="30" as="geometry" />
        </mxCell>
        <mxCell id="s3hDOaSbLEswyWiAhaWJ-281" value="Apellido:" style="text;html=1;align=center;verticalAlign=middle;whiteSpace=wrap;rounded=0;" parent="1" vertex="1">
          <mxGeometry x="1990" y="557.5" width="50" height="30" as="geometry" />
        </mxCell>
        <mxCell id="s3hDOaSbLEswyWiAhaWJ-282" value="DNI:" style="text;html=1;align=center;verticalAlign=middle;whiteSpace=wrap;rounded=0;" parent="1" vertex="1">
          <mxGeometry x="2010" y="587.5" width="30" height="30" as="geometry" />
        </mxCell>
        <mxCell id="s3hDOaSbLEswyWiAhaWJ-283" value="Telefono:" style="text;html=1;align=center;verticalAlign=middle;whiteSpace=wrap;rounded=0;" parent="1" vertex="1">
          <mxGeometry x="1990" y="617.5" width="50" height="30" as="geometry" />
        </mxCell>
        <mxCell id="s3hDOaSbLEswyWiAhaWJ-284" value="Campo de Texto" style="rounded=1;whiteSpace=wrap;html=1;" parent="1" vertex="1">
          <mxGeometry x="2060" y="531.5" width="100" height="20" as="geometry" />
        </mxCell>
        <mxCell id="s3hDOaSbLEswyWiAhaWJ-285" value="Campo de Texto" style="rounded=1;whiteSpace=wrap;html=1;" parent="1" vertex="1">
          <mxGeometry x="2060" y="562.5" width="100" height="20" as="geometry" />
        </mxCell>
        <mxCell id="s3hDOaSbLEswyWiAhaWJ-286" value="Campo de Texto" style="rounded=1;whiteSpace=wrap;html=1;" parent="1" vertex="1">
          <mxGeometry x="2060" y="621.5" width="100" height="20" as="geometry" />
        </mxCell>
        <mxCell id="s3hDOaSbLEswyWiAhaWJ-287" value="Campo de Texto" style="rounded=1;whiteSpace=wrap;html=1;" parent="1" vertex="1">
          <mxGeometry x="2060" y="592.5" width="100" height="20" as="geometry" />
        </mxCell>
        <mxCell id="s3hDOaSbLEswyWiAhaWJ-288" value="Botón de carga" style="rounded=1;whiteSpace=wrap;html=1;" parent="1" vertex="1">
          <mxGeometry x="2017.5" y="699" width="117" height="20" as="geometry" />
        </mxCell>
        <mxCell id="s3hDOaSbLEswyWiAhaWJ-289" value="Dirección:" style="text;html=1;align=center;verticalAlign=middle;whiteSpace=wrap;rounded=0;" parent="1" vertex="1">
          <mxGeometry x="1990" y="647.5" width="50" height="30" as="geometry" />
        </mxCell>
        <mxCell id="s3hDOaSbLEswyWiAhaWJ-290" value="Campo de Texto" style="rounded=1;whiteSpace=wrap;html=1;" parent="1" vertex="1">
          <mxGeometry x="2060" y="651.5" width="100" height="20" as="geometry" />
        </mxCell>
        <mxCell id="s3hDOaSbLEswyWiAhaWJ-291" value="" style="shape=table;startSize=0;container=1;collapsible=0;childLayout=tableLayout;fontSize=16;" parent="1" vertex="1">
          <mxGeometry x="1941" y="200" width="270" height="90" as="geometry" />
        </mxCell>
        <mxCell id="s3hDOaSbLEswyWiAhaWJ-292" value="" style="shape=tableRow;horizontal=0;startSize=0;swimlaneHead=0;swimlaneBody=0;strokeColor=inherit;top=0;left=0;bottom=0;right=0;collapsible=0;dropTarget=0;fillColor=none;points=[[0,0.5],[1,0.5]];portConstraint=eastwest;fontSize=16;" parent="s3hDOaSbLEswyWiAhaWJ-291" vertex="1">
          <mxGeometry width="270" height="45" as="geometry" />
        </mxCell>
        <mxCell id="s3hDOaSbLEswyWiAhaWJ-293" value="DNI" style="shape=partialRectangle;html=1;whiteSpace=wrap;connectable=0;strokeColor=inherit;overflow=hidden;fillColor=none;top=0;left=0;bottom=0;right=0;pointerEvents=1;fontSize=16;" parent="s3hDOaSbLEswyWiAhaWJ-292" vertex="1">
          <mxGeometry width="60" height="45" as="geometry">
            <mxRectangle width="60" height="45" as="alternateBounds" />
          </mxGeometry>
        </mxCell>
        <mxCell id="s3hDOaSbLEswyWiAhaWJ-294" value="Trab" style="shape=partialRectangle;html=1;whiteSpace=wrap;connectable=0;strokeColor=inherit;overflow=hidden;fillColor=none;top=0;left=0;bottom=0;right=0;pointerEvents=1;fontSize=16;" parent="s3hDOaSbLEswyWiAhaWJ-292" vertex="1">
          <mxGeometry x="60" width="50" height="45" as="geometry">
            <mxRectangle width="50" height="45" as="alternateBounds" />
          </mxGeometry>
        </mxCell>
        <mxCell id="s3hDOaSbLEswyWiAhaWJ-295" value="Fecha" style="shape=partialRectangle;html=1;whiteSpace=wrap;connectable=0;strokeColor=inherit;overflow=hidden;fillColor=none;top=0;left=0;bottom=0;right=0;pointerEvents=1;fontSize=16;" parent="s3hDOaSbLEswyWiAhaWJ-292" vertex="1">
          <mxGeometry x="110" width="49" height="45" as="geometry">
            <mxRectangle width="49" height="45" as="alternateBounds" />
          </mxGeometry>
        </mxCell>
        <mxCell id="s3hDOaSbLEswyWiAhaWJ-296" value="Total" style="shape=partialRectangle;html=1;whiteSpace=wrap;connectable=0;strokeColor=inherit;overflow=hidden;fillColor=none;top=0;left=0;bottom=0;right=0;pointerEvents=1;fontSize=16;" parent="s3hDOaSbLEswyWiAhaWJ-292" vertex="1">
          <mxGeometry x="159" width="64" height="45" as="geometry">
            <mxRectangle width="64" height="45" as="alternateBounds" />
          </mxGeometry>
        </mxCell>
        <mxCell id="s3hDOaSbLEswyWiAhaWJ-297" value="" style="shape=partialRectangle;html=1;whiteSpace=wrap;connectable=0;strokeColor=inherit;overflow=hidden;fillColor=none;top=0;left=0;bottom=0;right=0;pointerEvents=1;fontSize=16;" parent="s3hDOaSbLEswyWiAhaWJ-292" vertex="1">
          <mxGeometry x="223" width="47" height="45" as="geometry">
            <mxRectangle width="47" height="45" as="alternateBounds" />
          </mxGeometry>
        </mxCell>
        <mxCell id="s3hDOaSbLEswyWiAhaWJ-299" value="" style="shape=tableRow;horizontal=0;startSize=0;swimlaneHead=0;swimlaneBody=0;strokeColor=inherit;top=0;left=0;bottom=0;right=0;collapsible=0;dropTarget=0;fillColor=none;points=[[0,0.5],[1,0.5]];portConstraint=eastwest;fontSize=16;" parent="s3hDOaSbLEswyWiAhaWJ-291" vertex="1">
          <mxGeometry y="45" width="270" height="45" as="geometry" />
        </mxCell>
        <mxCell id="s3hDOaSbLEswyWiAhaWJ-300" value="" style="shape=partialRectangle;html=1;whiteSpace=wrap;connectable=0;strokeColor=inherit;overflow=hidden;fillColor=none;top=0;left=0;bottom=0;right=0;pointerEvents=1;fontSize=16;" parent="s3hDOaSbLEswyWiAhaWJ-299" vertex="1">
          <mxGeometry width="60" height="45" as="geometry">
            <mxRectangle width="60" height="45" as="alternateBounds" />
          </mxGeometry>
        </mxCell>
        <mxCell id="s3hDOaSbLEswyWiAhaWJ-301" value="" style="shape=partialRectangle;html=1;whiteSpace=wrap;connectable=0;strokeColor=inherit;overflow=hidden;fillColor=none;top=0;left=0;bottom=0;right=0;pointerEvents=1;fontSize=16;" parent="s3hDOaSbLEswyWiAhaWJ-299" vertex="1">
          <mxGeometry x="60" width="50" height="45" as="geometry">
            <mxRectangle width="50" height="45" as="alternateBounds" />
          </mxGeometry>
        </mxCell>
        <mxCell id="s3hDOaSbLEswyWiAhaWJ-302" value="" style="shape=partialRectangle;html=1;whiteSpace=wrap;connectable=0;strokeColor=inherit;overflow=hidden;fillColor=none;top=0;left=0;bottom=0;right=0;pointerEvents=1;fontSize=16;" parent="s3hDOaSbLEswyWiAhaWJ-299" vertex="1">
          <mxGeometry x="110" width="49" height="45" as="geometry">
            <mxRectangle width="49" height="45" as="alternateBounds" />
          </mxGeometry>
        </mxCell>
        <mxCell id="s3hDOaSbLEswyWiAhaWJ-303" value="" style="shape=partialRectangle;html=1;whiteSpace=wrap;connectable=0;strokeColor=inherit;overflow=hidden;fillColor=none;top=0;left=0;bottom=0;right=0;pointerEvents=1;fontSize=16;" parent="s3hDOaSbLEswyWiAhaWJ-299" vertex="1">
          <mxGeometry x="159" width="64" height="45" as="geometry">
            <mxRectangle width="64" height="45" as="alternateBounds" />
          </mxGeometry>
        </mxCell>
        <mxCell id="s3hDOaSbLEswyWiAhaWJ-304" value="&lt;span style=&quot;font-size: 10px;&quot;&gt;Detalles&lt;/span&gt;" style="shape=partialRectangle;html=1;whiteSpace=wrap;connectable=0;strokeColor=inherit;overflow=hidden;fillColor=none;top=0;left=0;bottom=0;right=0;pointerEvents=1;fontSize=16;" parent="s3hDOaSbLEswyWiAhaWJ-299" vertex="1">
          <mxGeometry x="223" width="47" height="45" as="geometry">
            <mxRectangle width="47" height="45" as="alternateBounds" />
          </mxGeometry>
        </mxCell>
        <mxCell id="s3hDOaSbLEswyWiAhaWJ-307" style="edgeStyle=orthogonalEdgeStyle;rounded=0;orthogonalLoop=1;jettySize=auto;html=1;" parent="1" source="s3hDOaSbLEswyWiAhaWJ-306" edge="1">
          <mxGeometry relative="1" as="geometry">
            <mxPoint x="2350" y="160.25" as="targetPoint" />
          </mxGeometry>
        </mxCell>
        <mxCell id="s3hDOaSbLEswyWiAhaWJ-306" value="filtro de busqueda" style="rounded=1;whiteSpace=wrap;html=1;" parent="1" vertex="1">
          <mxGeometry x="2081" y="150.5" width="130" height="19.5" as="geometry" />
        </mxCell>
        <mxCell id="s3hDOaSbLEswyWiAhaWJ-309" value="&lt;ul&gt;&lt;li&gt;Nombre y Apellido&lt;/li&gt;&lt;li&gt;DNI&lt;/li&gt;&lt;li&gt;Trabajador&lt;/li&gt;&lt;li&gt;Fecha&lt;/li&gt;&lt;/ul&gt;" style="text;html=1;align=left;verticalAlign=middle;resizable=0;points=[];autosize=1;strokeColor=none;fillColor=none;" parent="1" vertex="1">
          <mxGeometry x="2340" y="110" width="160" height="100" as="geometry" />
        </mxCell>
        <mxCell id="s3hDOaSbLEswyWiAhaWJ-311" style="edgeStyle=orthogonalEdgeStyle;rounded=0;orthogonalLoop=1;jettySize=auto;html=1;" parent="1" source="s3hDOaSbLEswyWiAhaWJ-310" edge="1">
          <mxGeometry relative="1" as="geometry">
            <mxPoint x="2350" y="332.5" as="targetPoint" />
          </mxGeometry>
        </mxCell>
        <mxCell id="s3hDOaSbLEswyWiAhaWJ-310" value="Total" style="rounded=1;whiteSpace=wrap;html=1;" parent="1" vertex="1">
          <mxGeometry x="2134.5" y="320" width="115" height="25" as="geometry" />
        </mxCell>
        <mxCell id="s3hDOaSbLEswyWiAhaWJ-312" value="&lt;ul&gt;&lt;li&gt;Calcula todos los totales de todas las fechas&lt;/li&gt;&lt;li&gt;En caso de filtrar, también se hace el total&lt;/li&gt;&lt;/ul&gt;" style="text;html=1;align=left;verticalAlign=middle;resizable=0;points=[];autosize=1;strokeColor=none;fillColor=none;" parent="1" vertex="1">
          <mxGeometry x="2340" y="300" width="300" height="70" as="geometry" />
        </mxCell>
        <mxCell id="s3hDOaSbLEswyWiAhaWJ-313" value="Exportar CSV" style="rounded=1;whiteSpace=wrap;html=1;" parent="1" vertex="1">
          <mxGeometry x="1930" y="317.5" width="139" height="30" as="geometry" />
        </mxCell>
        <mxCell id="s3hDOaSbLEswyWiAhaWJ-314" value="Filtro de fecha" style="rounded=1;whiteSpace=wrap;html=1;" parent="1" vertex="1">
          <mxGeometry x="1930" y="150" width="100" height="20" as="geometry" />
        </mxCell>
        <mxCell id="s3hDOaSbLEswyWiAhaWJ-315" value="Metodos de pago" style="rounded=1;whiteSpace=wrap;html=1;" parent="1" vertex="1">
          <mxGeometry x="1936" y="420" width="240" height="30" as="geometry" />
        </mxCell>
        <mxCell id="4IDYIX8B53RQQ8ew2xPR-1" value="Historial" style="text;html=1;align=center;verticalAlign=middle;whiteSpace=wrap;rounded=0;" parent="1" vertex="1">
          <mxGeometry x="45" y="290" width="60" height="30" as="geometry" />
        </mxCell>
        <mxCell id="4IDYIX8B53RQQ8ew2xPR-2" value="Ajustes" style="rounded=0;whiteSpace=wrap;html=1;" parent="1" vertex="1">
          <mxGeometry x="20" y="290" width="110" height="30" as="geometry" />
        </mxCell>
        <mxCell id="4IDYIX8B53RQQ8ew2xPR-36" value="" style="rounded=1;whiteSpace=wrap;html=1;" parent="1" vertex="1">
          <mxGeometry x="2795" y="50" width="240" height="30" as="geometry" />
        </mxCell>
        <mxCell id="4IDYIX8B53RQQ8ew2xPR-37" value="Ajustes" style="text;html=1;align=center;verticalAlign=middle;whiteSpace=wrap;rounded=0;" parent="1" vertex="1">
          <mxGeometry x="2885" y="50" width="60" height="30" as="geometry" />
        </mxCell>
        <mxCell id="4IDYIX8B53RQQ8ew2xPR-38" value="" style="rounded=0;whiteSpace=wrap;html=1;movable=1;resizable=1;rotatable=1;deletable=1;editable=1;locked=0;connectable=1;" parent="1" vertex="1">
          <mxGeometry x="2670" y="100" width="490" height="280" as="geometry" />
        </mxCell>
        <mxCell id="4IDYIX8B53RQQ8ew2xPR-39" value="" style="rounded=0;whiteSpace=wrap;html=1;" parent="1" vertex="1">
          <mxGeometry x="2670" y="100" width="110" height="280" as="geometry" />
        </mxCell>
        <mxCell id="4IDYIX8B53RQQ8ew2xPR-40" value="" style="rounded=0;whiteSpace=wrap;html=1;" parent="1" vertex="1">
          <mxGeometry x="2670" y="199" width="110" height="30" as="geometry" />
        </mxCell>
        <mxCell id="4IDYIX8B53RQQ8ew2xPR-41" value="Clientes" style="text;html=1;align=center;verticalAlign=middle;whiteSpace=wrap;rounded=0;" parent="1" vertex="1">
          <mxGeometry x="2695" y="199" width="60" height="30" as="geometry" />
        </mxCell>
        <mxCell id="4IDYIX8B53RQQ8ew2xPR-42" value="" style="rounded=0;whiteSpace=wrap;html=1;" parent="1" vertex="1">
          <mxGeometry x="2670" y="229" width="110" height="30" as="geometry" />
        </mxCell>
        <mxCell id="4IDYIX8B53RQQ8ew2xPR-43" value="Trabajadores" style="text;html=1;align=center;verticalAlign=middle;whiteSpace=wrap;rounded=0;" parent="1" vertex="1">
          <mxGeometry x="2695" y="229" width="60" height="30" as="geometry" />
        </mxCell>
        <mxCell id="4IDYIX8B53RQQ8ew2xPR-44" value="" style="rounded=0;whiteSpace=wrap;html=1;" parent="1" vertex="1">
          <mxGeometry x="2670" y="259" width="110" height="30" as="geometry" />
        </mxCell>
        <mxCell id="4IDYIX8B53RQQ8ew2xPR-45" value="Servicios" style="text;html=1;align=center;verticalAlign=middle;whiteSpace=wrap;rounded=0;" parent="1" vertex="1">
          <mxGeometry x="2695" y="259" width="60" height="30" as="geometry" />
        </mxCell>
        <mxCell id="4IDYIX8B53RQQ8ew2xPR-46" value="" style="rounded=0;whiteSpace=wrap;html=1;" parent="1" vertex="1">
          <mxGeometry x="2670" y="289" width="110" height="30" as="geometry" />
        </mxCell>
        <mxCell id="4IDYIX8B53RQQ8ew2xPR-47" value="Historial" style="text;html=1;align=center;verticalAlign=middle;whiteSpace=wrap;rounded=0;" parent="1" vertex="1">
          <mxGeometry x="2695" y="289" width="60" height="30" as="geometry" />
        </mxCell>
        <mxCell id="4IDYIX8B53RQQ8ew2xPR-48" value="Boton de Inicio" style="text;html=1;align=center;verticalAlign=middle;whiteSpace=wrap;rounded=0;" parent="1" vertex="1">
          <mxGeometry x="2695" y="120" width="60" height="30" as="geometry" />
        </mxCell>
        <mxCell id="4IDYIX8B53RQQ8ew2xPR-49" value="Apagar app" style="text;html=1;align=center;verticalAlign=middle;whiteSpace=wrap;rounded=0;" parent="1" vertex="1">
          <mxGeometry x="2695" y="330" width="60" height="30" as="geometry" />
        </mxCell>
        <mxCell id="4IDYIX8B53RQQ8ew2xPR-50" value="" style="rounded=0;whiteSpace=wrap;html=1;" parent="1" vertex="1">
          <mxGeometry x="2670" y="169" width="110" height="30" as="geometry" />
        </mxCell>
        <mxCell id="4IDYIX8B53RQQ8ew2xPR-51" value="Laburito" style="text;html=1;align=center;verticalAlign=middle;whiteSpace=wrap;rounded=0;" parent="1" vertex="1">
          <mxGeometry x="2695" y="169" width="60" height="30" as="geometry" />
        </mxCell>
        <mxCell id="4IDYIX8B53RQQ8ew2xPR-52" value="" style="rounded=1;whiteSpace=wrap;html=1;" parent="1" vertex="1">
          <mxGeometry x="2950" y="284" width="150" height="20" as="geometry" />
        </mxCell>
        <mxCell id="4IDYIX8B53RQQ8ew2xPR-54" value="Ver trabajadores de baja" style="rounded=1;whiteSpace=wrap;html=1;" parent="1" vertex="1">
          <mxGeometry x="2810" y="169" width="210" height="20" as="geometry" />
        </mxCell>
        <mxCell id="4IDYIX8B53RQQ8ew2xPR-55" value="Limpiar borrados." style="rounded=1;whiteSpace=wrap;html=1;" parent="1" vertex="1">
          <mxGeometry x="2810" y="125.25" width="210" height="19.5" as="geometry" />
        </mxCell>
        <mxCell id="4IDYIX8B53RQQ8ew2xPR-69" value="Ajustes" style="rounded=0;whiteSpace=wrap;html=1;fillColor=#6a00ff;fontColor=#ffffff;strokeColor=#3700CC;" parent="1" vertex="1">
          <mxGeometry x="2670" y="309" width="110" height="30" as="geometry" />
        </mxCell>
        <mxCell id="4IDYIX8B53RQQ8ew2xPR-90" value="" style="rounded=1;whiteSpace=wrap;html=1;" parent="1" vertex="1">
          <mxGeometry x="2805" y="445" width="240" height="30" as="geometry" />
        </mxCell>
        <mxCell id="4IDYIX8B53RQQ8ew2xPR-91" value="Ver dados de baja" style="text;html=1;align=center;verticalAlign=middle;whiteSpace=wrap;rounded=0;" parent="1" vertex="1">
          <mxGeometry x="2895" y="445" width="60" height="30" as="geometry" />
        </mxCell>
        <mxCell id="4IDYIX8B53RQQ8ew2xPR-92" value="" style="rounded=0;whiteSpace=wrap;html=1;movable=0;resizable=0;rotatable=0;deletable=0;editable=0;locked=1;connectable=0;" parent="1" vertex="1">
          <mxGeometry x="2680" y="495" width="490" height="280" as="geometry" />
        </mxCell>
        <mxCell id="4IDYIX8B53RQQ8ew2xPR-93" value="" style="rounded=0;whiteSpace=wrap;html=1;" parent="1" vertex="1">
          <mxGeometry x="2680" y="495" width="110" height="280" as="geometry" />
        </mxCell>
        <mxCell id="4IDYIX8B53RQQ8ew2xPR-94" value="" style="rounded=0;whiteSpace=wrap;html=1;" parent="1" vertex="1">
          <mxGeometry x="2680" y="594" width="110" height="30" as="geometry" />
        </mxCell>
        <mxCell id="4IDYIX8B53RQQ8ew2xPR-95" value="Clientes" style="text;html=1;align=center;verticalAlign=middle;whiteSpace=wrap;rounded=0;" parent="1" vertex="1">
          <mxGeometry x="2705" y="594" width="60" height="30" as="geometry" />
        </mxCell>
        <mxCell id="4IDYIX8B53RQQ8ew2xPR-96" value="" style="rounded=0;whiteSpace=wrap;html=1;" parent="1" vertex="1">
          <mxGeometry x="2680" y="624" width="110" height="30" as="geometry" />
        </mxCell>
        <mxCell id="4IDYIX8B53RQQ8ew2xPR-97" value="Trabajadores" style="text;html=1;align=center;verticalAlign=middle;whiteSpace=wrap;rounded=0;" parent="1" vertex="1">
          <mxGeometry x="2705" y="624" width="60" height="30" as="geometry" />
        </mxCell>
        <mxCell id="4IDYIX8B53RQQ8ew2xPR-98" value="" style="rounded=0;whiteSpace=wrap;html=1;" parent="1" vertex="1">
          <mxGeometry x="2680" y="654" width="110" height="30" as="geometry" />
        </mxCell>
        <mxCell id="4IDYIX8B53RQQ8ew2xPR-99" value="Servicios" style="text;html=1;align=center;verticalAlign=middle;whiteSpace=wrap;rounded=0;" parent="1" vertex="1">
          <mxGeometry x="2705" y="654" width="60" height="30" as="geometry" />
        </mxCell>
        <mxCell id="4IDYIX8B53RQQ8ew2xPR-100" value="" style="rounded=0;whiteSpace=wrap;html=1;" parent="1" vertex="1">
          <mxGeometry x="2680" y="684" width="110" height="30" as="geometry" />
        </mxCell>
        <mxCell id="4IDYIX8B53RQQ8ew2xPR-101" value="Historial" style="text;html=1;align=center;verticalAlign=middle;whiteSpace=wrap;rounded=0;" parent="1" vertex="1">
          <mxGeometry x="2705" y="684" width="60" height="30" as="geometry" />
        </mxCell>
        <mxCell id="4IDYIX8B53RQQ8ew2xPR-102" value="Boton de Inicio" style="text;html=1;align=center;verticalAlign=middle;whiteSpace=wrap;rounded=0;" parent="1" vertex="1">
          <mxGeometry x="2705" y="515" width="60" height="30" as="geometry" />
        </mxCell>
        <mxCell id="4IDYIX8B53RQQ8ew2xPR-103" value="Apagar app" style="text;html=1;align=center;verticalAlign=middle;whiteSpace=wrap;rounded=0;" parent="1" vertex="1">
          <mxGeometry x="2705" y="725" width="60" height="30" as="geometry" />
        </mxCell>
        <mxCell id="4IDYIX8B53RQQ8ew2xPR-104" value="" style="rounded=0;whiteSpace=wrap;html=1;" parent="1" vertex="1">
          <mxGeometry x="2680" y="564" width="110" height="30" as="geometry" />
        </mxCell>
        <mxCell id="4IDYIX8B53RQQ8ew2xPR-105" value="Laburito" style="text;html=1;align=center;verticalAlign=middle;whiteSpace=wrap;rounded=0;" parent="1" vertex="1">
          <mxGeometry x="2705" y="564" width="60" height="30" as="geometry" />
        </mxCell>
        <mxCell id="4IDYIX8B53RQQ8ew2xPR-106" value="" style="rounded=1;whiteSpace=wrap;html=1;" parent="1" vertex="1">
          <mxGeometry x="3180" y="430" width="150" height="20" as="geometry" />
        </mxCell>
        <mxCell id="4IDYIX8B53RQQ8ew2xPR-107" value="Ver clientes de baja" style="rounded=1;whiteSpace=wrap;html=1;" parent="1" vertex="1">
          <mxGeometry x="2810" y="205" width="210" height="20" as="geometry" />
        </mxCell>
        <mxCell id="4IDYIX8B53RQQ8ew2xPR-108" value="Limpiar borrados." style="rounded=1;whiteSpace=wrap;html=1;" parent="1" vertex="1">
          <mxGeometry x="2820" y="520.25" width="210" height="19.5" as="geometry" />
        </mxCell>
        <mxCell id="4IDYIX8B53RQQ8ew2xPR-109" value="Ajustes" style="rounded=0;whiteSpace=wrap;html=1;fillColor=#6a00ff;fontColor=#ffffff;strokeColor=#3700CC;" parent="1" vertex="1">
          <mxGeometry x="2680" y="704" width="110" height="30" as="geometry" />
        </mxCell>
        <mxCell id="4IDYIX8B53RQQ8ew2xPR-56" value="" style="shape=table;startSize=0;container=1;collapsible=0;childLayout=tableLayout;fontSize=16;" parent="1" vertex="1">
          <mxGeometry x="2810" y="623" width="324" height="90" as="geometry" />
        </mxCell>
        <mxCell id="4IDYIX8B53RQQ8ew2xPR-57" value="" style="shape=tableRow;horizontal=0;startSize=0;swimlaneHead=0;swimlaneBody=0;strokeColor=inherit;top=0;left=0;bottom=0;right=0;collapsible=0;dropTarget=0;fillColor=none;points=[[0,0.5],[1,0.5]];portConstraint=eastwest;fontSize=16;" parent="4IDYIX8B53RQQ8ew2xPR-56" vertex="1">
          <mxGeometry width="324" height="45" as="geometry" />
        </mxCell>
        <mxCell id="4IDYIX8B53RQQ8ew2xPR-58" value="Nombre" style="shape=partialRectangle;html=1;whiteSpace=wrap;connectable=0;strokeColor=inherit;overflow=hidden;fillColor=none;top=0;left=0;bottom=0;right=0;pointerEvents=1;fontSize=16;" parent="4IDYIX8B53RQQ8ew2xPR-57" vertex="1">
          <mxGeometry width="60" height="45" as="geometry">
            <mxRectangle width="60" height="45" as="alternateBounds" />
          </mxGeometry>
        </mxCell>
        <mxCell id="4IDYIX8B53RQQ8ew2xPR-59" value="Apellido" style="shape=partialRectangle;html=1;whiteSpace=wrap;connectable=0;strokeColor=inherit;overflow=hidden;fillColor=none;top=0;left=0;bottom=0;right=0;pointerEvents=1;fontSize=16;" parent="4IDYIX8B53RQQ8ew2xPR-57" vertex="1">
          <mxGeometry x="60" width="65" height="45" as="geometry">
            <mxRectangle width="65" height="45" as="alternateBounds" />
          </mxGeometry>
        </mxCell>
        <mxCell id="4IDYIX8B53RQQ8ew2xPR-60" value="DNI" style="shape=partialRectangle;html=1;whiteSpace=wrap;connectable=0;strokeColor=inherit;overflow=hidden;fillColor=none;top=0;left=0;bottom=0;right=0;pointerEvents=1;fontSize=16;" parent="4IDYIX8B53RQQ8ew2xPR-57" vertex="1">
          <mxGeometry x="125" width="55" height="45" as="geometry">
            <mxRectangle width="55" height="45" as="alternateBounds" />
          </mxGeometry>
        </mxCell>
        <mxCell id="4IDYIX8B53RQQ8ew2xPR-61" value="Telefono" style="shape=partialRectangle;html=1;whiteSpace=wrap;connectable=0;strokeColor=inherit;overflow=hidden;fillColor=none;top=0;left=0;bottom=0;right=0;pointerEvents=1;fontSize=16;" parent="4IDYIX8B53RQQ8ew2xPR-57" vertex="1">
          <mxGeometry x="180" width="72" height="45" as="geometry">
            <mxRectangle width="72" height="45" as="alternateBounds" />
          </mxGeometry>
        </mxCell>
        <mxCell id="4IDYIX8B53RQQ8ew2xPR-62" style="shape=partialRectangle;html=1;whiteSpace=wrap;connectable=0;strokeColor=inherit;overflow=hidden;fillColor=none;top=0;left=0;bottom=0;right=0;pointerEvents=1;fontSize=16;" parent="4IDYIX8B53RQQ8ew2xPR-57" vertex="1">
          <mxGeometry x="252" width="72" height="45" as="geometry">
            <mxRectangle width="72" height="45" as="alternateBounds" />
          </mxGeometry>
        </mxCell>
        <mxCell id="4IDYIX8B53RQQ8ew2xPR-63" value="" style="shape=tableRow;horizontal=0;startSize=0;swimlaneHead=0;swimlaneBody=0;strokeColor=inherit;top=0;left=0;bottom=0;right=0;collapsible=0;dropTarget=0;fillColor=none;points=[[0,0.5],[1,0.5]];portConstraint=eastwest;fontSize=16;" parent="4IDYIX8B53RQQ8ew2xPR-56" vertex="1">
          <mxGeometry y="45" width="324" height="45" as="geometry" />
        </mxCell>
        <mxCell id="4IDYIX8B53RQQ8ew2xPR-64" value="" style="shape=partialRectangle;html=1;whiteSpace=wrap;connectable=0;strokeColor=inherit;overflow=hidden;fillColor=none;top=0;left=0;bottom=0;right=0;pointerEvents=1;fontSize=16;" parent="4IDYIX8B53RQQ8ew2xPR-63" vertex="1">
          <mxGeometry width="60" height="45" as="geometry">
            <mxRectangle width="60" height="45" as="alternateBounds" />
          </mxGeometry>
        </mxCell>
        <mxCell id="4IDYIX8B53RQQ8ew2xPR-65" value="" style="shape=partialRectangle;html=1;whiteSpace=wrap;connectable=0;strokeColor=inherit;overflow=hidden;fillColor=none;top=0;left=0;bottom=0;right=0;pointerEvents=1;fontSize=16;" parent="4IDYIX8B53RQQ8ew2xPR-63" vertex="1">
          <mxGeometry x="60" width="65" height="45" as="geometry">
            <mxRectangle width="65" height="45" as="alternateBounds" />
          </mxGeometry>
        </mxCell>
        <mxCell id="4IDYIX8B53RQQ8ew2xPR-66" value="" style="shape=partialRectangle;html=1;whiteSpace=wrap;connectable=0;strokeColor=inherit;overflow=hidden;fillColor=none;top=0;left=0;bottom=0;right=0;pointerEvents=1;fontSize=16;" parent="4IDYIX8B53RQQ8ew2xPR-63" vertex="1">
          <mxGeometry x="125" width="55" height="45" as="geometry">
            <mxRectangle width="55" height="45" as="alternateBounds" />
          </mxGeometry>
        </mxCell>
        <mxCell id="4IDYIX8B53RQQ8ew2xPR-67" style="shape=partialRectangle;html=1;whiteSpace=wrap;connectable=0;strokeColor=inherit;overflow=hidden;fillColor=none;top=0;left=0;bottom=0;right=0;pointerEvents=1;fontSize=16;" parent="4IDYIX8B53RQQ8ew2xPR-63" vertex="1">
          <mxGeometry x="180" width="72" height="45" as="geometry">
            <mxRectangle width="72" height="45" as="alternateBounds" />
          </mxGeometry>
        </mxCell>
        <mxCell id="4IDYIX8B53RQQ8ew2xPR-68" value="Modificar / Eliminar" style="shape=partialRectangle;html=1;whiteSpace=wrap;connectable=0;strokeColor=inherit;overflow=hidden;fillColor=none;top=0;left=0;bottom=0;right=0;pointerEvents=1;fontSize=16;" parent="4IDYIX8B53RQQ8ew2xPR-63" vertex="1">
          <mxGeometry x="252" width="72" height="45" as="geometry">
            <mxRectangle width="72" height="45" as="alternateBounds" />
          </mxGeometry>
        </mxCell>
        <mxCell id="GMFBZycBK2qamHIOkNdV-1" value="" style="verticalLabelPosition=bottom;verticalAlign=top;html=1;shape=mxgraph.basic.tick;fillColor=#60a917;fontColor=#ffffff;strokeColor=#2D7600;" vertex="1" parent="1">
          <mxGeometry x="35" y="900" width="110" height="150" as="geometry" />
        </mxCell>
        <mxCell id="GMFBZycBK2qamHIOkNdV-2" value="" style="verticalLabelPosition=bottom;verticalAlign=top;html=1;shape=mxgraph.basic.tick;fillColor=#60a917;fontColor=#ffffff;strokeColor=#2D7600;" vertex="1" parent="1">
          <mxGeometry x="950" y="603" width="110" height="150" as="geometry" />
        </mxCell>
        <mxCell id="GMFBZycBK2qamHIOkNdV-3" value="" style="verticalLabelPosition=bottom;verticalAlign=top;html=1;shape=mxgraph.basic.tick;fillColor=#60a917;fontColor=#ffffff;strokeColor=#2D7600;" vertex="1" parent="1">
          <mxGeometry x="385" y="219" width="110" height="150" as="geometry" />
        </mxCell>
        <mxCell id="GMFBZycBK2qamHIOkNdV-4" value="" style="verticalLabelPosition=bottom;verticalAlign=top;html=1;shape=mxgraph.basic.tick;fillColor=#60a917;fontColor=#ffffff;strokeColor=#2D7600;" vertex="1" parent="1">
          <mxGeometry x="1630" y="225" width="110" height="150" as="geometry" />
        </mxCell>
        <mxCell id="GMFBZycBK2qamHIOkNdV-5" value="" style="verticalLabelPosition=bottom;verticalAlign=top;html=1;shape=mxgraph.basic.tick;fillColor=#60a917;fontColor=#ffffff;strokeColor=#2D7600;" vertex="1" parent="1">
          <mxGeometry x="1559" y="598" width="110" height="150" as="geometry" />
        </mxCell>
      </root>
    </mxGraphModel>
  </diagram>
</mxfile>
